<?xml version="1.0" standalone="no"?>
<!DOCTYPE svg PUBLIC "-//W3C//DTD SVG 1.1//EN" "http://www.w3.org/Graphics/SVG/1.1/DTD/svg11.dtd" >
<svg xmlns="http://www.w3.org/2000/svg">
<metadata></metadata>
<defs>
<font id="bigfishblack" horiz-adv-x="1359" >
<font-face units-per-em="2048" ascent="1638" descent="-410" />
<missing-glyph horiz-adv-x="327" />
<glyph horiz-adv-x="2048" />
<glyph horiz-adv-x="2048" />
<glyph unicode="&#xd;" horiz-adv-x="2048" />
<glyph unicode=" "  horiz-adv-x="327" />
<glyph unicode="&#x09;" horiz-adv-x="327" />
<glyph unicode="&#xa0;" horiz-adv-x="327" />
<glyph unicode="!" horiz-adv-x="643" d="M41 1325l551 18l-98 -921h-435zM43 260l465 -4l20 -264l-479 -8z" />
<glyph unicode="&#x22;" horiz-adv-x="905" d="M20 1280l402 -6l-25 -596l-336 -14zM481 1278l383 2l-30 -623l-318 7z" />
<glyph unicode="#" horiz-adv-x="1411" d="M100 674v297l154 4l-10 270l362 8l4 -268l205 4l6 256l367 8l-12 -254l149 5l-16 -316l-150 -2l-14 -254h155l-10 -233h-157l-11 -199l-331 -14l6 217l-179 4l5 -207l-328 -14l-10 225h-156l-6 225h153l-10 240zM602 690l4 -266h207l6 268z" />
<glyph unicode="$" horiz-adv-x="1454" d="M41 823q0 82 40 148t112 109.5t161.5 70t196.5 37.5l-2 172l502 10l-25 -182q205 -8 387 -25l-29 -499q-43 10 -114 25t-242 40t-285 25q-97 0 -128 -32q-28 -29 31 -59q38 -19 104 -34q117 -25 205 -50t167.5 -56.5t129.5 -66.5t79 -80t29 -97q0 -117 -123.5 -192.5 t-323.5 -86.5q-18 -178 -24 -178l-373 12l-8 182q-129 16 -225.5 36t-128.5 32l-31 12l-2 228q3 -6 40 -23t106 -39t153.5 -42.5t198.5 -35t225 -14.5q55 0 97 9t64 23t25.5 32t-12.5 36t-55.5 34.5t-98.5 27.5q-103 19 -160 30t-142.5 30t-132.5 34t-111 38.5t-98.5 47 t-74 56t-59 69.5t-32.5 84t-13 102z" />
<glyph unicode="%" horiz-adv-x="1751" d="M20 862q0 70 19.5 127.5t50.5 96t75 68t88 46t94 27t88 13.5t75 3q59 0 117.5 -8.5t128 -34t121.5 -66t87 -111.5t35 -163v-31l277 439l383 2l-553 -623q87 21 172 21q52 0 104 -7.5t113 -30t107 -58t77 -98.5t31 -144q0 -82 -28.5 -147t-72.5 -104.5t-102 -65.5 t-113 -36t-110 -10q-56 0 -111 8.5t-116 33.5t-107 64t-76 106t-30 153q0 6 1 19.5t1 19.5l-244 -371h-309l383 469q-79 -20 -158 -20q-64 0 -126.5 10t-131.5 38t-120.5 72t-85.5 120t-34 173zM369 752q0 -39 44.5 -69t116.5 -30q73 0 118.5 28.5t45.5 70.5q0 88 -168 88 q-76 0 -116.5 -25t-40.5 -63zM1133 283q0 -38 43 -67.5t112 -29.5q73 0 117.5 28t44.5 71q0 86 -164 86q-73 0 -113 -25.5t-40 -62.5z" />
<glyph unicode="&#x26;" horiz-adv-x="1689" d="M61 885q0 197 177 311.5t520 114.5q209 0 390 -19t257 -38l76 -19l-11 -657l179 -3l-21 -182l-172 -2q-4 -17 -8.5 -43t-1.5 -73t27 -56q31 -8 74.5 -4.5t82.5 12.5l39 9v-189q-20 -7 -54 -18t-118.5 -29t-146.5 -18q-39 0 -76.5 9t-63 21.5t-45.5 25t-29 21.5l-10 9 q-7 -4 -21 -10t-59.5 -22t-93.5 -28.5t-119.5 -22.5t-142.5 -10q-80 0 -156.5 10t-151.5 34t-131.5 59.5t-91 90.5t-34.5 122q0 65 17.5 115.5t42.5 76t50 41t43 19.5l17 4q-10 4 -25.5 11t-56 35.5t-71 63.5t-56 96t-25.5 132zM578 291q0 -56 59.5 -81.5t144.5 -25.5 q44 0 111 17.5t111 34.5l45 18l-9 135h-249q-213 0 -213 -98zM582 688q0 -50 48.5 -81t117.5 -40t138.5 -11t117.5 2l49 5l10 205l-111 17q-293 34 -355 -50q-15 -20 -15 -47z" />
<glyph unicode="'" horiz-adv-x="475" d="M41 1264l393 12l-8 -606l-344 -2z" />
<glyph unicode="(" horiz-adv-x="745" d="M41 610q0 193 34.5 344t89.5 238.5t121 148.5t132.5 83.5t121.5 33t90 7.5l34 -3l-17 -585q-6 1 -16 2t-38.5 -3.5t-54.5 -17.5t-58 -46.5t-55 -82.5t-38.5 -133.5t-15.5 -192.5q0 -99 14 -179.5t37 -129t50.5 -84.5t55 -52t50.5 -25.5t37 -10.5h14l14 -174q-8 0 -21 0.5 t-54.5 7t-81 19.5t-94 42.5t-101 70t-94 107.5t-81 150.5t-54.5 203.5t-21 261z" />
<glyph unicode=")" horiz-adv-x="745" d="M82 1462q8 1 22 2t56.5 -1.5t83.5 -11.5t97 -34t104.5 -63t97.5 -104t83.5 -151.5t56.5 -211t22 -277.5q0 -141 -20.5 -261t-55.5 -203.5t-80.5 -150.5t-95.5 -107.5t-99.5 -70t-95 -42t-80.5 -19.5t-56 -8h-20l15 174q5 0 14.5 1t36.5 10t51 25t54 51.5t51.5 84.5 t36 129.5t14.5 179.5q0 85 -9.5 155.5t-25.5 118t-37 84.5t-44 58t-45.5 35t-43.5 18t-37 6t-25 0l-10 -1z" />
<glyph unicode="*" horiz-adv-x="964" d="M41 1176l324 26l118 260l146 -260l295 -12l-199 -223l53 -308l-276 127l-266 -145l18 309z" />
<glyph unicode="+" horiz-adv-x="983" d="M41 717l295 6l8 301l344 -6l-29 -289l283 6l-10 -274h-299l-29 -275l-282 -12l8 287h-283z" />
<glyph unicode="," horiz-adv-x="528" d="M41 0l2 352l444 19l-38 -627l-218 -12l17 268h-207z" />
<glyph unicode="-" horiz-adv-x="735" d="M61 707l613 18l-10 -328h-596z" />
<glyph unicode="." horiz-adv-x="565" d="M41 -16l4 376l479 -6q0 -362 -6 -362z" />
<glyph unicode="/" horiz-adv-x="980" d="M41 -2l389 1321l510 18l-469 -1331z" />
<glyph unicode="0" horiz-adv-x="1411" d="M61 647q0 115 25.5 209.5t66.5 158t99 112t115 75.5t123.5 43.5t116.5 21.5t100 5q53 0 107 -7t118.5 -26t122 -48.5t113 -79t95 -113t63.5 -155t24 -200.5q0 -151 -42.5 -272t-108 -194t-152.5 -122t-168.5 -67.5t-163.5 -18.5q-58 0 -116 8t-123.5 29t-123.5 54 t-112.5 86.5t-93 122t-62 166t-23.5 212.5zM487 485q0 -120 64 -215.5t166 -95.5q107 0 171 88.5t64 226.5q0 273 -239 273q-109 0 -167.5 -79t-58.5 -198z" />
<glyph unicode="1" horiz-adv-x="911" d="M41 1028q54 -6 110 2.5t105 31.5t78.5 67.5t25.5 103.5l406 10l-6 -1055l137 -8l4 -182h-795l-4 195l181 -5l-7 545h-225z" />
<glyph unicode="2" horiz-adv-x="1290" d="M61 1208q29 6 80 15.5t199.5 25t284.5 15.5q103 0 194 -14t170.5 -45t136.5 -77.5t90 -115t33 -154.5q0 -48 -7.5 -89t-19.5 -74t-34.5 -62t-43.5 -50t-56.5 -42t-64 -34.5t-74.5 -30t-79.5 -26.5t-87.5 -26q-295 -86 -227 -256l295 10l16 129l334 27l-10 -342l-1071 8 q-26 72 -14.5 135.5t21.5 112.5t49.5 92t70.5 73.5t84 57.5t90 43.5t88.5 31.5t79.5 22t63 15q16 3 23 5q88 21 116.5 43.5t28.5 60.5q0 78 -147 78q-23 0 -52.5 -2t-74.5 -7.5t-75.5 -9t-93.5 -13t-88 -13t-100.5 -15.5t-91.5 -14z" />
<glyph unicode="3" horiz-adv-x="1366" d="M41 1210q2 0 22.5 4t34.5 6.5t43 7.5t57 8.5t67 8t81.5 7.5t92.5 6t108.5 4.5t120.5 1.5q145 0 261 -21.5t206.5 -67t140 -123.5t49.5 -184q0 -56 -12.5 -105.5t-32.5 -83t-44 -61t-47.5 -44t-43.5 -27.5t-33 -15l-12 -4q7 -1 17.5 -4t38.5 -18.5t49.5 -38t39 -67 t17.5 -101.5q0 -152 -147 -237t-410 -85q-97 0 -193 10t-163.5 24.5t-121 29.5t-79.5 25l-27 10l-12 211q82 -34 264 -70.5t350 -28.5q44 2 72 27t28 70q0 43 -29.5 65.5t-70.5 24.5q-25 2 -77.5 2.5t-91.5 0.5l-40 -1l4 176q119 2 180 12q93 13 93 97q0 20 -8 35 t-29.5 29.5t-68.5 22t-118 7.5q-84 0 -206 -14.5t-203 -29.5l-80 -14z" />
<glyph unicode="4" horiz-adv-x="1429" d="M0 492l614 737l658 10l-70 -727l221 2l7 -201l-242 4l-14 -129l137 -8l4 -178h-811l-4 191l184 -5l2 115l-680 6zM430 498l272 2l15 305z" />
<glyph unicode="5" horiz-adv-x="1404" d="M82 1217l1282 4l-45 -492l-832 21l-2 -144q844 76 844 -276q0 -167 -147 -260t-410 -93q-97 0 -202.5 12.5t-186.5 30t-148 34.5t-103 30l-36 12l-12 211q67 -28 298 -71t372 -43q75 0 109 27.5t34 88.5t-42 87t-157 26q-65 0 -209.5 -7t-256.5 -13l-111 -7z" />
<glyph unicode="6" horiz-adv-x="1404" d="M61 598q-1 149 40.5 261.5t134 198t239.5 130.5t356.5 58t485.5 -19l-29 -494q-375 60 -561.5 19.5t-177.5 -160.5q9 1 50.5 6.5t67 8t70.5 6.5t96.5 6t110.5 2q79 0 154 -15t140.5 -45.5t105.5 -83t40 -119.5q0 -54 -21 -106t-68.5 -102t-117 -87.5t-174.5 -60 t-233 -22.5q-344 0 -525 160t-184 458zM543 397q-5 -53 14.5 -95.5t56 -67t81.5 -40t93 -15.5t90 9t72 30.5t39 51.5q29 101 -89.5 133t-356.5 -6z" />
<glyph unicode="7" horiz-adv-x="1351" d="M41 1208l1311 -8l-33 -412q-40 -21 -77.5 -43t-79 -50t-78.5 -57t-72.5 -63t-63.5 -69t-49 -74t-31.5 -78.5t-9.5 -83t16 -86.5l140 -4l-2 -188l-750 8v184l119 2q1 97 37.5 187t96 158t136 125t155 93.5t155.5 57.5l-543 -35l-15 -149l-329 -7z" />
<glyph unicode="8" horiz-adv-x="1454" d="M41 868q0 392 690 392q158 0 277 -20t195.5 -54.5t124 -87.5t66.5 -114t19 -138q0 -50 -14 -95t-36.5 -76.5t-50 -57.5t-55 -42.5t-50 -28t-36.5 -16.5l-14 -4q8 -3 21.5 -8.5t48 -26t60.5 -44t47.5 -63t21.5 -83.5q0 -51 -15 -94.5t-56.5 -88t-108 -75.5t-176.5 -50.5 t-255 -19.5q-147 0 -258.5 16t-183 44t-116.5 70.5t-63 90.5t-18 109q0 54 20 97t48 65.5t56.5 37.5t48.5 19l20 4q-10 4 -27.5 12t-62 37.5t-78.5 65.5t-62 97t-28 130zM485 670q0 -57 74.5 -89t171.5 -32q46 0 86.5 6t77 19t57.5 37t21 57q0 123 -234 123 q-254 0 -254 -121zM504 276q0 -114 235 -114q130 0 174.5 25t44.5 85q0 103 -223 103q-105 0 -168 -25t-63 -74z" />
<glyph unicode="9" horiz-adv-x="1445" d="M41 748q0 86 25.5 158.5t67.5 123.5t101 91.5t122 65.5t133.5 41t132 22.5t122.5 6.5q84 0 168.5 -19.5t170.5 -67t151.5 -117.5t107 -180.5t41.5 -247.5q0 -138 -40 -250t-107 -186t-159.5 -124t-194 -72t-213.5 -22q-102 0 -191 9.5t-143 22.5t-93 26t-55 23l-16 9 l-8 181q8 -4 23 -9.5t64 -21t102 -27t134 -21t162 -9.5q62 0 113 11t83 29t55.5 39.5t35 43t18.5 39.5t8 29l1 11q-54 -17 -127 -27.5t-161 -11.5t-176 9.5t-171 41.5t-146.5 78t-102 124.5t-38.5 177.5zM522.5 637q3.5 -49 42.5 -84q49 -34 126.5 -41t149 5t144.5 36 q0 5 -1 12.5t-6.5 30.5t-15 43.5t-28.5 46t-44 43.5t-64.5 30.5t-88.5 12.5q-98 0 -158 -43t-56.5 -92z" />
<glyph unicode=":" horiz-adv-x="587" d="M41 702q0 367 6 367l477 -12l-4 -361zM68 377l479 10q-6 -412 -12 -412l-459 25z" />
<glyph unicode=";" horiz-adv-x="561" d="M41 1016l479 10q-6 -375 -12 -375l-459 25zM55 352l445 19l-33 -627l-184 -2l-23 258h-201z" />
<glyph unicode="&#x3c;" horiz-adv-x="983" d="M61 666l738 421l110 -251l-424 -205l410 -174l-127 -299l-694 385z" />
<glyph unicode="=" horiz-adv-x="983" d="M41 518l901 -6l-10 -264l-885 14zM41 913l901 19l-10 -275h-885z" />
<glyph unicode="&#x3e;" horiz-adv-x="983" d="M94 813l123 283l705 -410l-4 -131l-732 -389l-86 272l400 185z" />
<glyph unicode="?" horiz-adv-x="1193" d="M41 1231q8 3 23.5 8.5t67.5 19.5t107.5 24.5t141 19t172.5 8.5q130 0 236 -22t189 -68t129 -123t46 -180q0 -50 -22.5 -91t-58.5 -67.5t-81.5 -53t-91 -48t-87.5 -51.5t-71.5 -63.5t-42 -84.5t1.5 -115l-452 2q-18 73 1.5 138.5t70 115t118 85.5t150.5 60q60 17 93 37.5 t36 39t-13 34t-54 24.5t-87 9q-209 0 -506 -121zM246 260l465 -4l20 -264l-479 -8z" />
<glyph unicode="@" horiz-adv-x="2291" d="M41 567q0 199 54 365t150.5 283.5t230.5 198.5t292.5 120t337.5 39q182 0 353 -39t314 -115t250.5 -180t167.5 -241.5t60 -292.5q0 -148 -46.5 -278t-132.5 -227t-208 -161.5t-273 -80.5t-327 15l-17 207q-6 -8 -18 -22t-51.5 -49t-81.5 -61.5t-105 -48.5t-125 -22 q-372 0 -372 510q0 284 100 457.5t278 173.5q73 0 131 -22t95.5 -55t67.5 -87t46.5 -103.5t34.5 -119.5v285l443 -27l-54 -809q8 1 21.5 3t53 14.5t75.5 31.5t79.5 56.5t75 85.5t53 124t21.5 167q0 80 -24.5 164.5t-87 176.5t-155.5 163.5t-244.5 118t-338.5 46.5 q-186 0 -339.5 -41.5t-259 -113.5t-178.5 -169.5t-106.5 -207.5t-33.5 -230q0 -99 28.5 -200t80.5 -193.5t130 -173.5t171.5 -141t210 -94.5t241.5 -34.5q115 0 212.5 5.5t155.5 10.5t121 18.5t82 18.5t67.5 21.5t51.5 17.5l25 -221q-127 -26 -286.5 -40t-448.5 -14 q-105 0 -210.5 20.5t-208.5 62.5t-196.5 102.5t-173 145.5t-137 186.5t-90.5 230t-33 270.5zM894.5 304.5q31.5 -95.5 129.5 -95.5q48 0 88.5 31t64 76t40 89.5t22.5 75.5l6 31q-2 3 -6.5 8.5t-20.5 19t-35.5 23.5t-52 18.5t-69.5 8.5q-100 0 -149 -95t-17.5 -190.5z" />
<glyph unicode="A" horiz-adv-x="1812" d="M0 209h158l299 551l-250 -4l-31 563l1055 -19l434 -1105h143l4 -197l-894 -4l-9 196h172l-45 146l-428 4l-76 -141l205 -9l6 -188l-739 -4zM682 537h301l-123 319z" />
<glyph unicode="B" horiz-adv-x="1804" d="M20 1305l1207 8h8q231 -1 369 -113q140 -114 139 -319q0 -56 -12.5 -105.5t-32.5 -83t-44 -61t-47.5 -44t-43.5 -27.5t-33 -15l-12 -4q7 -1 17.5 -4t38.5 -18.5t49 -38.5t38.5 -67.5t17.5 -101.5q0 -147 -100 -231t-248 -84l-1227 4l-18 199l156 6l-13 553h-182zM680 197 h465q42 0 69 29.5t27 76.5q-1 44 -31 70q-28 24 -63 24h-6l-461 -6v-194zM688 569l434 2q42 0 63 33.5t21 75.5q0 39 -21.5 66.5t-64.5 27.5h-428z" />
<glyph unicode="C" horiz-adv-x="1796" d="M20 653q0 109 24.5 202.5t65.5 160.5t95.5 121t112.5 88t119 57t112.5 32t95.5 9q81 0 152 -11.5t118.5 -29.5t86 -40t61 -44.5t37.5 -40.5t20 -29l6 -12v193l588 4l-61 -746l-570 -6q-6 18 -16.5 38.5t-34 51.5t-52.5 55q-28 23 -74 40q-43 16 -93 16h-6 q-73 -1 -131 -25.5t-93 -64t-53 -87t-18 -98.5q0 -54 15.5 -106.5t46 -99.5t84.5 -76t124 -29q57 0 105 14t77.5 32.5t55.5 49t37.5 49.5t25.5 48l545 10l-22 -379l-244 -2l-23 199q-83 -116 -239.5 -177t-323.5 -61q-101 0 -200 20t-201.5 70.5t-179.5 126.5t-126 199.5 t-49 277.5z" />
<glyph unicode="D" horiz-adv-x="1810" d="M51 1319q669 4 965 4q70 0 136 -6.5t143 -25t142.5 -48t128 -80t106.5 -116t70.5 -160t26.5 -209.5q0 -114 -26.5 -210.5t-71 -165t-107.5 -122t-131.5 -86.5t-147 -54t-149.5 -29.5t-145 -8.5l-848 -6l-16 199l154 -7l-33 570h-180zM731 188q55 5 227 5q88 0 159 31.5 t117 102.5t46 171q0 57 -21 103t-54 75t-75.5 48.5t-83 27.5t-79.5 8l-228 -4z" />
<glyph unicode="E" horiz-adv-x="1744" d="M41 1317l1601 6l-26 -756h-361l-12 193l-526 -6v-185l287 4l-5 -204l-294 -13l4 -172l526 6l16 193l340 18v-395l-1521 -10l-4 203h190l-27 555h-170z" />
<glyph unicode="F" horiz-adv-x="1705" d="M41 1313l1645 10l-35 -768l-391 -10l-11 213l-506 -4l-16 -181l348 -4l-4 -194l-344 -15v-172h231l-14 -188h-823l-10 188h163l-16 574l-199 -8z" />
<glyph unicode="G" horiz-adv-x="1728" d="M41 680q0 158 56.5 284t156 207t232 124t288.5 44l852 4l-41 -579q-604 31 -762 31q-82 0 -149 -28.5t-111.5 -93.5t-44.5 -157q0 -145 86.5 -235.5t216.5 -90.5q120 0 214.5 62.5t97.5 124.5l-285 -8l-2 204l778 35l-29 -631q-295 1 -295 13l9 278q-169 -276 -559 -276 q-325 0 -517 184t-192 504z" />
<glyph unicode="H" horiz-adv-x="1867" d="M41 1315l803 8v-545l-168 -4l-14 -207l522 6l-4 197l-142 -4l-6 553l785 4l-21 -553l-129 4l-25 -586h138l-6 -188l-750 -8l4 201l158 4l-2 184l-500 -4v-184l141 -9l4 -184l-702 -10l-4 209h113l-39 561l-142 4z" />
<glyph unicode="I" horiz-adv-x="1064" d="M41 1315l983 8l-43 -565h-223l-4 -563l137 -9l18 -188h-782l-4 201l180 -4l-12 567h-219z" />
<glyph unicode="J" horiz-adv-x="1533" d="M10 428q0 80 33 144t85.5 101.5t111 57t116.5 19.5q55 0 118.5 -23.5t117 -61.5t89.5 -90.5t36 -105.5q0 -24 -5.5 -46t-16.5 -41.5t-22 -36t-29 -32t-30.5 -26t-32.5 -23t-30 -18t-27.5 -15t-19.5 -10.5q30 -12 90.5 -22.5t116.5 -10.5q101 0 159 66q54 62 54 134v13 l-29 355h-274l-41 565l913 2l-2 -563l-109 2v-246v-22q0 -33 -2 -63q-3 -40 -16.5 -97t-36 -103.5t-66 -96t-102.5 -83t-149.5 -55t-202.5 -21.5q-158 0 -291 26t-225 70t-156.5 102.5t-94.5 122.5t-30 132z" />
<glyph unicode="K" horiz-adv-x="1867" d="M41 1329h809l-6 -561h-103l7 -178l231 8l192 176l-145 6l6 547l785 14l-33 -557l-191 -14l-250 -190l379 -373h146v-203l-856 -10l4 196h151l-211 205l-215 -6l-4 -201h150l-4 -192l-793 4l-6 188l184 5l-6 579l-205 -4z" />
<glyph unicode="L" horiz-adv-x="1601" d="M20 1307l977 8l-47 -565l-213 -7l11 -516l323 6l103 451l407 14l-35 -721l-1495 15v203l223 10l-10 553l-213 6z" />
<glyph unicode="M" horiz-adv-x="2164" d="M41 1309h813l254 -744l299 744l713 6l-39 -557l-137 6l8 -576q144 2 164 2q8 -6 8 -40v-12q-2 -45 -8 -98l-5 -52l-811 12l5 178l174 8l20 609l-379 -830l-235 -12l-353 848l7 -615l147 -4l14 -186l-604 10l-4 197l146 -4l-5 577l-172 -4z" />
<glyph unicode="N" horiz-adv-x="1959" d="M41 1313l913 -10q125 -378 207 -560q36 -80 100 -210t110 -220l46 -90l-14 525l-164 6l-25 555l705 6l-29 -565l-151 12l-41 -756l-719 -53l-424 860l23 -629h184v-190l-647 10l-6 191l143 6l-33 559l-139 -6z" />
<glyph unicode="O" horiz-adv-x="1769" d="M31 688q0 123 32.5 224t84 168t125.5 118t147 79t158 45.5t148.5 22.5t129.5 5q69 0 141.5 -7.5t161 -27.5t168.5 -51.5t156.5 -84.5t132 -121t89.5 -166.5t34 -215.5q0 -118 -31.5 -218.5t-84 -173t-124.5 -130.5t-150.5 -95t-165.5 -61.5t-164.5 -34.5t-152.5 -10 t-150 9t-159 32.5t-158 59.5t-142.5 94t-117.5 132.5t-78.5 179t-29.5 228.5zM526 502q0 -127 101.5 -227.5t253.5 -100.5q156 0 257 94.5t101 239.5q0 142 -95 219.5t-270 77.5q-159 0 -253.5 -88.5t-94.5 -214.5z" />
<glyph unicode="P" horiz-adv-x="1740" d="M41 1337l1094 -8q155 -2 211 -9q263 -34 340 -239q34 -90 34 -215q0 -100 -17.5 -181t-46.5 -136t-72.5 -95.5t-87 -63.5t-100 -36.5t-102.5 -17.5t-102 -4h-492l-2 -144l273 -8v-180l-881 -12l-6 217l149 -4v559h-180zM692 528q352 4 418 4q55 0 102.5 40t47.5 98 q0 112 -150 112l-414 -6z" />
<glyph unicode="Q" horiz-adv-x="1775" d="M31 682q0 100 19 185.5t51 148.5t80 114t99.5 85t117.5 59.5t125 39.5t130.5 22.5t127 11t120.5 2.5q89 0 170.5 -7.5t171 -28t164 -53.5t144 -87t117 -124t76 -170t28.5 -221q0 -350 -242 -534l272 -215l-444 -330l-256 381q-95 -14 -201 -14q-86 0 -165.5 8t-168.5 30 t-164.5 57t-145.5 92.5t-119 132t-78 181t-29 234.5zM537 467q0 -73 25.5 -129t63 -88.5t88.5 -53t95 -27.5t88 -7q43 0 87.5 8t94 29.5t87 54.5t62.5 88t25 125q0 69 -24 124t-61.5 88t-86.5 55t-94 30t-90 8q-46 0 -90.5 -7t-95 -27.5t-88 -53t-62 -88.5t-24.5 -129z" />
<glyph unicode="R" horiz-adv-x="1818" d="M41 1313l1212 -6q264 -1 392.5 -124t128.5 -368q0 -69 -16.5 -131t-43 -105t-58.5 -79.5t-63.5 -58.5t-58 -37.5t-42.5 -21.5l-17 -7l157 -199h146v-196l-631 10l-229 375h-197l4 -189h172l6 -192l-797 6l-14 196h148l-21 574h-158zM700 774l5 -223h479q53 0 92 36t39 81 q0 46 -35.5 78t-85.5 32z" />
<glyph unicode="S" horiz-adv-x="1746" d="M20 895q0 87 34 158t91.5 118.5t135 80t162 47t175.5 14.5q114 0 220 -21.5t177.5 -52.5t118.5 -62.5t60 -56.5l-4 193l516 8l-31 -651l-465 6q-46 66 -150.5 122t-213.5 56q-78 0 -121 -34q-25 -20 -25 -43q0 -17 13 -35q31 -44 141 -66q152 -31 255.5 -55.5 t198.5 -53.5t152 -56.5t100.5 -62t61.5 -75t18 -90.5q0 -93 -84.5 -166.5t-220.5 -111.5t-295 -38q-193 0 -362.5 50t-243.5 147l6 -166h-219l-57 344l457 -10q54 -80 171 -133.5t281 -53.5q69 0 116 10.5t61 27t3.5 36t-57.5 39.5t-121 35q-350 69 -452 94 q-335 85 -474 213q-129 118 -129 295z" />
<glyph unicode="T" horiz-adv-x="1603" d="M41 1319h1522l-35 -780l-320 -41l21 319l-199 -2l6 -627h217l-4 -188h-903l-16 203l219 -4l20 606l-198 -8l20 -316l-340 6z" />
<glyph unicode="U" horiz-adv-x="1761" d="M41 1315l774 4l-4 -561l-166 -4v-414q0 -135 127 -135h219q31 0 53 7t33 18.5t18 26.5t7.5 32t1.5 34t0 33l16 398h-155l-4 565l759 6l-14 -565l-129 2l-41 -373q-5 -43 -10 -72.5t-17.5 -73.5t-30 -74t-49.5 -64.5t-73 -55.5t-102.5 -35.5t-137.5 -15.5l-526 -8h-8 q-72 0 -132 17q-64 18 -104 44t-70.5 68t-45.5 75t-25.5 79.5t-12.5 67.5t-4 52l-24 367h-111z" />
<glyph unicode="V" horiz-adv-x="1900" d="M20 1325l857 -4l10 -547h-152l230 -530l268 538l-168 -4v547l815 4l-16 -563l-174 8l-461 -768l-606 -14l-410 778l-180 -8z" />
<glyph unicode="W" horiz-adv-x="2228" d="M20 1321l820 2l-11 -565l-141 6l88 -440l311 1003l191 4l276 -1003l80 440l-127 -6l11 549l761 12l-86 -549l-131 -2l-237 -782l-568 8l-83 590l-170 -582l-572 -10l-221 766l-141 -2z" />
<glyph unicode="X" horiz-adv-x="1935" d="M20 1321l928 4l13 -557l-132 -4l226 -158l227 150l-141 10v543l753 10l-14 -563l-137 8l-467 -313l434 -252l139 4l-4 -205l-872 -4l-4 186l114 10l-194 144l-203 -150l115 4l-13 -186l-663 -8l4 196l129 -4l422 285l-453 293l-159 -4z" />
<glyph unicode="Y" horiz-adv-x="1949" d="M41 1321h915l-12 -559l-133 -4l219 -180l254 184l-154 -4l-4 561l783 6l-43 -565l-183 -4l-481 -383l6 -189l187 4l-6 -186l-885 -8l-17 194l248 -2v160l-502 410l-157 4z" />
<glyph unicode="Z" horiz-adv-x="1685" d="M41 1315h1624l-41 -514l-846 -588l486 14l47 217l286 23l-30 -463l-1483 -6l4 186l825 637l-497 -8l-21 -246l-321 -6z" />
<glyph unicode="[" horiz-adv-x="745" d="M109 1462h550l-30 -588l-189 7v-924q197 12 203 -4q2 -6 2.5 -34.5t0 -58.5t-1.5 -58l-1 -29q-19 -3 -133 -3t-246 2l-133 3z" />
<glyph unicode="\" horiz-adv-x="915" d="M41 1319h506l389 -1321l-418 -31z" />
<glyph unicode="]" horiz-adv-x="745" d="M66 1434l542 28l6 -1695l-514 14l9 188l180 8l-13 897l-188 -8z" />
<glyph unicode="^" d="M287 1223l282 354l279 6l235 -360l-272 -6l-145 129l-164 -123h-215z" />
<glyph unicode="_" horiz-adv-x="1325" d="M-6 0h1370l-10 -268h-1354z" />
<glyph unicode="`" d="M283 1516l379 61l237 -328l-252 -26z" />
<glyph unicode="a" horiz-adv-x="1320" d="M20 276q0 146 96.5 212.5t264.5 66.5q90 0 166 -6.5t136.5 -16t72.5 -10.5q3 23 4 34.5t0.5 32t-5.5 31.5t-16 25t-28 21.5t-44 12.5t-63 5q-76 0 -212 -25.5t-234 -50.5l-99 -26l29 487q32 6 87 15t211 24.5t294 15.5q237 0 375 -109q130 -102 130 -279q0 -12 -1 -23 l-27 -541l133 8l-2 -180h-536l4 160q-7 -8 -21 -20t-57.5 -44t-88 -56.5t-109.5 -44.5t-126 -20q-170 0 -252 71t-82 230zM446 295q0 -40 29.5 -64t69.5 -24q39 0 106 50t92 105q-98 15 -174 15q-57 0 -90 -21t-33 -61z" />
<glyph unicode="b" horiz-adv-x="1409" d="M41 1468l569 5l-10 -635q26 77 55 127.5t73 88t105 54t146 16.5q173 0 276 -163.5t103 -432.5q0 -129 -36 -236.5t-95.5 -175t-132.5 -104.5t-150 -37q-56 0 -112.5 19.5t-97 47.5t-73 55.5t-49.5 46.5l-16 20l-4 -160l-541 -6l-6 188l143 -8l-20 735l-113 -6zM587 431 q14 -69 55 -113t83.5 -65.5t77.5 -21.5q58 0 94.5 57.5t36.5 129.5q0 36 -7.5 73t-22.5 73t-43.5 58.5t-65.5 22.5q-46 0 -96.5 -12.5t-77.5 -25.5l-27 -13q-13 -56 -13 -104q0 -31 6 -59z" />
<glyph unicode="c" horiz-adv-x="1345" d="M61 541q0 84 10.5 160.5t39.5 156t74 137.5t120 94.5t172 36.5q71 0 130 -23.5t98 -59.5t69.5 -85t47 -93.5t26.5 -92.5l-25 328h492l-43 -578l-447 -18q-1 5 -4 13t-16 28t-29.5 35.5t-48.5 28t-70 12.5q-50 0 -87.5 -20.5t-59 -54t-31.5 -71t-10 -78.5 q0 -94 47.5 -161.5t130.5 -67.5q49 0 86.5 16.5t58 45t31.5 57t15 61.5l403 -4l-10 -395l-221 -4l18 217q-17 -23 -35.5 -43.5t-59.5 -52.5t-88 -54t-121 -38.5t-159 -16.5q-154 0 -270 79.5t-175 211t-59 293.5z" />
<glyph unicode="d" horiz-adv-x="1433" d="M61 487q0 284 100.5 457.5t278.5 173.5q73 0 131 -22t95.5 -55t67.5 -87t46.5 -103.5t34.5 -119.5l-10 737h588l-19 -553l-155 9l-15 -744l156 2l-17 -184l-528 4v178q-6 -8 -18 -22t-51.5 -49t-81.5 -61.5t-105 -48.5t-125 -22q-373 0 -373 510zM462 304q32 -96 130 -95 q48 0 88.5 31t64 76t40 89.5t22.5 75.5l6 31q-2 3 -6.5 8.5t-20.5 19t-35.5 23.5t-52 18.5t-69.5 8.5q-100 0 -149 -95q-30 -58 -30 -116q0 -38 12 -75z" />
<glyph unicode="e" horiz-adv-x="1384" d="M61 483q0 342 157 503t462 161q89 0 168.5 -12t155.5 -41t135.5 -72t102.5 -109q44 -65 64 -149q16 -63 16 -144q0 -25 -2 -52q-6 -112 -44 -244l-793 -2q0 -6 2 -16.5t16.5 -36.5t38.5 -46t74.5 -36.5t118.5 -16.5q108 0 240.5 22t211.5 44l79 22l-35 -195 q-36 -12 -96 -29t-206 -46t-245 -29q-55 0 -105 3.5t-115 17t-118.5 35.5t-107.5 62t-91 93.5t-60.5 133.5t-23.5 179zM476 496l3 -17l412 15q1 3 3 8.5t3 21.5v7q0 11 -2 23q-3 14 -15 31.5t-33.5 30t-61.5 21t-93 8.5q-74 0 -123 -17t-67 -42q-18 -24 -24 -48 q-4 -15 -4 -28q0 -8 2 -14z" />
<glyph unicode="f" horiz-adv-x="899" d="M31 1051l155 -11q-6 50 -6 95q0 160 72 257q92 126 268 126q63 0 124 -7t95 -14t84.5 -19.5t65.5 -15.5l-43 -284q-33 3 -66.5 4.5t-63 -8t-51.5 -26t-33 -49.5q-7 -22 -7 -51q0 -13 2 -28l227 -19l-33 -403l-182 -16l10 -400l162 4v-192l-750 2l-8 184l164 8v375 l-170 -6z" />
<glyph unicode="g" horiz-adv-x="1415" d="M61 532q0 278 111 436t307 158q72 0 133 -38.5t96.5 -93t60.5 -109t35 -93.5l9 -38l8 346l563 2l-8 -555l-125 6l-18 -625q-2 -78 -66.5 -147.5t-160 -108.5t-189.5 -39q-83 0 -243 26.5t-279 52.5l-119 26l-8 194q307 -69 457 -69q107 0 156 43q44 39 44 101v13l-12 142 q-5 -7 -13.5 -19.5t-37.5 -43.5t-61.5 -54.5t-83 -43t-103.5 -19.5q-61 0 -121.5 18t-121 60t-106.5 103.5t-75 157t-29 211.5zM449 381q0 -75 34.5 -126.5t110.5 -51.5q53 0 102 50t77 122.5t28 142.5q-6 7 -18.5 17.5t-56.5 28.5t-93 18q-60 0 -103.5 -33t-62 -77.5 t-18.5 -90.5z" />
<glyph unicode="h" horiz-adv-x="1476" d="M31 1462l561 -2l10 -729q50 193 155.5 294t248.5 101q150 0 245 -125q88 -116 88 -307v-28l-16 -482h119l4 -186l-549 2l25 461v17q0 48 -14 80q-18 36 -48 46q-20 6 -43 7q-13 0 -25 -2q-38 -5 -74.5 -24t-67.5 -43.5t-48 -49.5v-304l178 9v-199l-739 6l-6 182l160 -6 l-23 727l-131 2z" />
<glyph unicode="i" horiz-adv-x="802" d="M41 1087l602 7l-14 -906l153 -6l-14 -182l-692 6l-8 176h153l-8 385l-158 -6zM170 1470l494 -10l-15 -233l-463 -17z" />
<glyph unicode="j" horiz-adv-x="759" d="M0 -264l8 166q93 -37 146 -37q44 0 77.5 25.5t32.5 68.5l-18 588h-183l-30 540l641 7l-6 -1143q-1 -73 -28.5 -132t-71 -95t-93.5 -55t-100 -19q-205 0 -375 86zM176 1458l522 6l-20 -252l-485 -2z" />
<glyph unicode="k" horiz-adv-x="1480" d="M31 1458l583 6l2 -901l193 6l82 109l-131 10l-6 410h641l-11 -467l-163 10l-127 -162l192 -295l174 6v-198l-528 6l-164 377h-152l-8 -195l172 -10v-172h-729l-6 182h158l-21 731h-137z" />
<glyph unicode="l" horiz-adv-x="827" d="M41 182l184 -2l2 735l-155 -12l-6 565h571l-10 -1288l159 2l-22 -184h-721z" />
<glyph unicode="m" horiz-adv-x="2060" d="M61 545v549l553 8l33 -373q47 199 129 295t238 96q48 0 86 -11.5t64.5 -29.5t46.5 -48.5t31.5 -60t19.5 -73.5t11.5 -79t6.5 -85q23 92 52.5 158.5t72 119t103 79t139.5 26.5q67 0 117 -23.5t80.5 -62.5t48.5 -99q19 -59 25 -123q6 -55 5 -124v-22l-4 -482l131 6l-8 -188 l-553 2l27 479v9q0 66 -56 93q-29 14 -57 14q-31 0 -63 -16q-60 -31 -60 -102l-4 -297l106 2v-184l-514 -8l9 499q1 65 -60 87q-26 10 -53 10l-69 -16q-61 -30 -60 -93l6 -291l117 -4l4 -188l-694 -4l-5 196l183 -4l-10 363h-175z" />
<glyph unicode="n" horiz-adv-x="1433" d="M41 1102h541l41 -375q27 182 118.5 289.5t239.5 107.5q97 0 172 -57.5t110.5 -138.5t34.5 -164l-6 -584l121 -2l-2 -186l-532 4l18 489v9q1 46 -19 74q-22 30 -56 35q-13 2 -26 2q-22 0 -45 -5q-38 -8 -72 -29t-54 -47v-340l131 2v-194l-682 14l-6 178l165 -4l-10 373 l-166 -2z" />
<glyph unicode="o" d="M61 492q0 131 17.5 230.5t60 183t113 136.5t177.5 82t251 29q150 0 259 -30t178 -83t109.5 -138t56 -182t15.5 -228q0 -113 -33.5 -204t-91 -152.5t-136.5 -102.5t-167 -59.5t-186 -18.5q-99 0 -187 17t-169 57t-139.5 100.5t-93 153t-34.5 209.5zM479 373 q0 -63 14.5 -103t45 -60t65.5 -27t88 -7q101 0 151 46.5t50 164.5q0 121 -53.5 167t-169.5 46q-108 0 -149.5 -49t-41.5 -178z" />
<glyph unicode="p" horiz-adv-x="1474" d="M31 1096l635 12l-13 -360q16 73 48 138t78.5 119t113 85.5t143.5 31.5q67 0 121 -16t103 -56t82 -105t52 -167t19 -237q0 -133 -26.5 -236t-67.5 -164.5t-98 -101t-111 -54t-113 -14.5q-84 0 -155 32.5t-113.5 75t-75.5 97.5l6 -549l-442 -6l12 940l-172 -14zM641 547 q-3 -23 -3 -44q0 -88 46 -153q58 -80 127 -80q67 0 123.5 53.5t56.5 118.5q0 70 -43 121t-117 51q-45 0 -92.5 -17t-72.5 -33z" />
<glyph unicode="q" horiz-adv-x="1466" d="M61 539q0 82 15 163t48.5 158.5t82.5 136t121.5 94t160.5 35.5q62 0 115.5 -21t88.5 -54t63.5 -73.5t44 -81t26 -73.5t13.5 -54l4 -21l-4 360l575 2l-8 -559l-131 -4l-19 -918l-438 -4l27 555q-42 -50 -76.5 -82.5t-80.5 -65t-101 -48t-119 -15.5q-408 0 -408 570z M483 399q0 -186 142 -186q47 0 100 56t85 129q30 68 30 117v9q-29 32 -81.5 50t-103.5 18q-60 0 -116 -54t-56 -139z" />
<glyph unicode="r" horiz-adv-x="1234" d="M41 571l8 531l529 -2l36 -434q1 7 3.5 20t12.5 51.5t24 74.5t39 83t55 84.5t75.5 71t97.5 49.5q46 15 107 15h16q70 -2 150 -28l-14 -528q-7 3 -19 7.5t-48.5 16.5t-72.5 21q-36 10 -84 16q-42 6 -80 5h-11q-42 -1 -85.5 -14t-74 -38.5t-50.5 -72.5t-22 -111 q-4 -187 -4 -207q-1 -8 47 -9h24q36 0 72 2l47 3l-10 -180h-766l6 195h184l5 389z" />
<glyph unicode="s" horiz-adv-x="1392" d="M41 741q0 85 23.5 155.5t70 124.5t122.5 84t175 30q84 0 153 -19.5t111 -48t73.5 -67.5t46 -70.5t22.5 -63.5l-7 246l521 12l-41 -540l-480 12q-42 143 -202 143q-61 -1 -87 -31q-14 -17 -14 -35q0 -15 9 -31q21 -36 81 -54l338 -92q71 -19 119 -39t86.5 -49t57 -69.5 t18.5 -94.5q0 -121 -115 -194t-311 -73q-162 0 -263 52t-145 121v-170l-239 -17l6 324l403 -4q16 -42 85.5 -79.5t187.5 -37.5q67 0 102.5 15t34 35t-37.5 40.5t-97 30.5l-414 65q-181 27 -287 127t-106 262z" />
<glyph unicode="t" horiz-adv-x="899" d="M41 1104l182 -2l2 186l449 -2l-8 -182l178 -2l-23 -553l-174 2l-8 -285q-1 -35 21.5 -52t55 -16t64.5 7t55 14l23 8v-182q-3 -2 -10.5 -6.5t-35 -15t-62 -18.5t-95 -14.5t-129.5 -6.5q-71 0 -125.5 22t-85 54t-50 74.5t-26 77.5t-6.5 69l-4 268l-178 -2z" />
<glyph unicode="u" horiz-adv-x="1497" d="M31 1096l594 8l-11 -717v-11q0 -84 30 -138q32 -58 95 -58q66 0 128.5 87.5t64.5 176.5l2 117l-158 -2l-16 541h596l-13 -887l123 -6l-4 -205h-522v176q-24 -32 -56.5 -62.5t-80.5 -62.5t-114.5 -51.5t-139.5 -19.5q-151 0 -237.5 91.5t-92.5 233.5l-10 246l-168 -2z" />
<glyph unicode="v" horiz-adv-x="1452" d="M31 1110l694 -2l14 -551l-114 -2l170 -324l190 324h-133l4 549l565 8l-22 -563h-135l-353 -553l-397 4l-334 549l-137 -2z" />
<glyph unicode="w" horiz-adv-x="2007" d="M31 1116l686 -6v-555h-103l101 -336l258 889h143l207 -891l115 350l-101 -4l15 520l624 9l-43 -537l-157 -6l-211 -543l-414 -6l-113 573l-161 -585l-469 4l-218 563l-135 4z" />
<glyph unicode="x" horiz-adv-x="1538" d="M31 1104h735v-531l-135 -10l209 -131l184 139l-139 4l18 535l604 8l-55 -549l-147 -10l-291 -217l256 -154l149 7l-10 -189l-684 -2l6 133l164 4l-231 138l-189 -129h135l-2 -154l-516 -8l-6 182h137l275 201l-305 184h-146z" />
<glyph unicode="y" horiz-adv-x="1488" d="M31 1087l696 13v-553l-117 2l183 -320l194 316h-147l4 561l614 -4l-20 -561h-172l-451 -768l227 -2l19 -181h-742l-6 193l207 -2l135 209h-139l-334 549l-135 2z" />
<glyph unicode="z" horiz-adv-x="1363" d="M41 1104l1282 -10l-10 -486l-735 -409l454 -11l-8 179h233l-18 -373l-1061 -2l-24 217l718 422l-557 -2l-8 -152l-231 -12z" />
<glyph unicode="{" horiz-adv-x="704" d="M4 655q70 6 109 45q12 12 15.5 42.5t0 70.5t-6 90t-4.5 103t8 107.5t28.5 104.5t58.5 94.5t97 77t146 51t203 17.5q-14 -581 -18 -581q-72 6 -113 -6t-54.5 -36.5t-16 -56.5t-6 -67t-16.5 -66t-55 -55t-114 -33q98 -22 139 -62t48 -116.5t-4 -200.5q-5 -71 12.5 -123.5 t45.5 -78t57 -40.5t50 -18l21 -2l6 -158q-107 6 -188 26t-129 49t-79.5 69.5t-43.5 81.5t-17.5 89.5t-4.5 90t-1.5 87.5t-11.5 77q-7 24 -25 40.5t-39 23t-41.5 9.5t-33.5 3l-13 -1z" />
<glyph unicode="|" horiz-adv-x="729" d="M143 1454l443 8l-19 -1462l-407 -14z" />
<glyph unicode="}" horiz-adv-x="702" d="M45 1458q107 9 192 -5t139.5 -45t94.5 -75.5t59.5 -97.5t31 -111t12 -115t0.5 -111t-2 -97.5t3 -76t17 -44.5q17 -17 39 -22.5t35 -1.5l14 3l10 -256q-5 0 -13.5 0.5t-32 -2.5t-42 -9.5t-37.5 -23t-26 -40.5q-11 -38 -13 -104.5t-2 -121t-21.5 -117.5t-64.5 -108 t-138.5 -78.5t-236.5 -40.5l7 183q9 0 24 1t52.5 11t65.5 29t48.5 61t15.5 100q-8 97 -8 165t40 112.5t134 66.5q-63 8 -104 32t-57 57.5t-25 73t-9 79t-9 76t-25 63t-56.5 40t-103.5 7.5q-2 0 -4 135.5t-3 271.5z" />
<glyph unicode="~" d="M180 1253q6 12 17 32.5t48 72.5t76 92.5t97.5 74.5t116.5 36q51 2 98 -14.5t76.5 -34t61.5 -26t67.5 12.5t79.5 78l307 -53q-10 -14 -28.5 -37t-72 -80.5t-104 -99.5t-115.5 -72t-117 -21t-104.5 36.5t-85.5 48t-71.5 30t-82.5 -15.5t-100 -90z" />
<glyph unicode="&#xa1;" horiz-adv-x="632" d="M41 1100l479 8l6 -277l-465 5zM51 -182l25 852h418l98 -873z" />
<glyph unicode="&#xa2;" horiz-adv-x="1282" d="M61 451q0 134 32 246.5t98 204t180.5 146t267.5 60.5l2 182h285q-5 -71 -11 -184l306 -4l-7 -506q-173 10 -335 16l-31 -395q44 14 78 39l274 -2l-4 -248q-17 -3 -55.5 -10t-52 -9t-43.5 -7t-48 -6.5t-46.5 -4.5t-57.5 -4t-64 -2l-12 -162h-194l2 166q-128 10 -229 42.5 t-177 90t-117 146.5t-41 205zM487 428q0 -38 2.5 -64t10.5 -55t23 -48t41 -34t63 -22l6 395q-146 -35 -146 -172z" />
<glyph unicode="&#xa3;" horiz-adv-x="1454" d="M111 612h77l-12 107q-5 26 -3 57t4 65.5t13 70.5t25 72t39.5 70t56 65t75.5 57t97.5 44.5t122 29t148.5 10.5q156 0 276.5 -26t192 -66t117 -96t61.5 -109.5t16 -112.5q0 -64 -26.5 -116t-69 -82t-90 -46t-94.5 -16q-60 0 -128 31t-116.5 85t-48.5 111q0 18 4 35 t9.5 30.5t16 27.5t19 24t22.5 21.5t22.5 18t24 15.5t21.5 12.5t20 10.5t15 8q-70 27 -168 27q-102 0 -160 -66t-53 -147l12 -218l185 2l18 -243h-190l10 -176l415 -4l11 178h235l-35 -371l-1177 -2l-2 207l110 8l-16 160h-88z" />
<glyph unicode="&#xa4;" horiz-adv-x="1368" d="M0 944l227 238l146 -140q140 88 303 88q211 0 350 -83l125 116l178 -196l-127 -125q35 -96 35 -201q0 -168 -68 -297l119 -115l-201 -247l-157 145q-125 -57 -246 -57q-143 0 -264 53l-148 -146l-211 179l150 141q-72 117 -72 281q0 117 31 208zM430 567q0 -101 64 -163 t182 -62q123 0 188.5 63.5t65.5 180.5q0 39 -13.5 75.5t-40 68t-73.5 50.5t-107 19q-123 0 -194.5 -65.5t-71.5 -166.5z" />
<glyph unicode="&#xa5;" horiz-adv-x="1468" d="M20 1223h717l-8 -496l-82 -4l119 -86l176 98l-102 -4l-2 496l610 6l-33 -500l-149 -4l-170 -151l266 8l-8 -140h-447l2 -43h439l-15 -114l-424 -10l2 -109l152 4l-4 -172l-719 -8l-14 180l200 -2v96l-381 -8l-10 141h391v41l-393 2l-10 127h207l-152 150l-129 4z" />
<glyph unicode="&#xa6;" horiz-adv-x="729" d="M143 1454l443 8l-4 -612l-428 4zM158 557h420l-11 -557l-407 -14z" />
<glyph unicode="&#xa7;" horiz-adv-x="1454" d="M90 881q0 102 80 188t209 134t274 48q126 0 295 -9.5t275 -19.5l106 -10l-37 -499l-571 65q-88 10 -119 -11q-23 -17 22 -36q35 -15 103 -26q214 -35 331.5 -74.5t161.5 -86.5t44 -118q0 -140 -234 -172q25 -10 41.5 -17t42.5 -24.5t42 -37t28 -53t12 -73.5 q0 -117 -112 -194.5t-289 -77.5q-55 0 -114.5 4.5t-106 10.5t-97.5 15t-80.5 15.5t-65 14.5t-40.5 9l-15 170q264 -69 502 -69q134 0 159 34q16 22 -29 41q-21 9 -52 15q-121 22 -205 40t-165 40t-131.5 44.5t-90 51t-57 63t-17.5 76.5q0 111 132 178q-36 20 -59 35 t-59.5 47t-58.5 66t-38.5 87.5t-16.5 115.5zM442 407q15 -35 140 -61q262 -53 317 -65q27 0 47 25q29 35 -13 65q-34 24 -112 37q-285 45 -340 57q-49 -34 -39 -58z" />
<glyph unicode="&#xa8;" horiz-adv-x="1361" d="M221 1470l494 -10l-15 -233l-462 -17zM815 1464l465 4l-14 -233l-445 8z" />
<glyph unicode="&#xa9;" horiz-adv-x="1628" d="M41 647q0 126 28 234.5t74.5 186.5t110 140.5t131.5 101.5t143 65.5t141 37t128 10.5q64 0 127 -6t144 -24.5t150.5 -48.5t139.5 -83.5t119 -123t79.5 -173t30.5 -229.5q0 -137 -31.5 -253t-83 -196t-121.5 -143.5t-141.5 -100.5t-149 -61.5t-138 -33t-113.5 -8.5 q-54 0 -113 6.5t-136 27t-147 52t-139.5 87t-119.5 127t-81.5 177t-31.5 231.5zM199 657q0 -247 157.5 -399t446.5 -152q300 0 462 156.5t162 442.5q0 77 -20 150t-65 141.5t-110 119.5t-163 82t-217 31q-151 0 -275 -44t-206.5 -121t-127 -181.5t-44.5 -225.5zM346 666 q0 90 26.5 162.5t66.5 115.5t89.5 72t92.5 40t79 11q64 0 115.5 -13t79.5 -31.5t47 -36.5t25 -31l6 -13l-4 102l266 -24l-8 -404l-279 -6q-5 16 -14.5 32t-27 38t-47.5 36t-66 13q-82 0 -124 -48.5t-42 -113.5q0 -33 8.5 -64.5t25 -60t47 -46t70.5 -17.5q121 0 170 117h287 v-142l-135 -20l-6 57q-47 -69 -136 -105t-184 -36q-57 0 -113 12t-114 42t-102 76t-71.5 119.5t-27.5 166.5z" />
<glyph unicode="&#xaa;" horiz-adv-x="1007" d="M82 766q0 102 68 149.5t184 47.5q49 0 95.5 -3.5t71.5 -6.5t57 -8.5t38 -6.5q5 21 3.5 42t-8.5 37t-33 26t-69 10q-53 0 -148 -18t-163 -36l-69 -18l20 340q197 39 414 39q167 0 263.5 -76t90.5 -211l-20 -379l94 6l-2 -127h-375l2 113q-5 -5 -14.5 -14t-40 -31 t-61.5 -39t-76.5 -31t-88.5 -14q-120 0 -176.5 48.5t-56.5 160.5zM381 780q0 -28 20 -44.5t48 -16.5t74.5 35t64.5 73q-70 11 -121 11q-86 0 -86 -58z" />
<glyph unicode="&#xab;" horiz-adv-x="952" d="M41 649l121 383l299 6l-137 -397l165 -383l-280 -18zM467 641l129 391l295 -6l-184 -385l245 -393l-295 -12z" />
<glyph unicode="&#xac;" horiz-adv-x="983" d="M68 915q-3 0 80.5 -1.5t205 -4l243 -5t207.5 -4.5l85 -1q1 -39 2 -96t3.5 -210t2 -210t-1.5 -96l-348 -11v373l-475 -8q6 274 -4 274z" />
<glyph unicode="&#xad;" horiz-adv-x="735" d="M61 707l613 18l-10 -328h-596z" />
<glyph unicode="&#xae;" horiz-adv-x="1628" d="M41 647q0 126 28 234.5t74.5 186.5t110 140.5t131.5 101.5t143 65.5t141 37t128 10.5q64 0 127 -6t144 -24.5t150.5 -48.5t139.5 -83.5t119 -123t79.5 -173t30.5 -229.5q0 -137 -31.5 -253t-83 -196t-121.5 -143.5t-141.5 -100.5t-149 -61.5t-138 -33t-113.5 -8.5 q-54 0 -113 6.5t-136 27t-147 52t-139.5 87t-119.5 127t-81.5 177t-31.5 231.5zM199 657q0 -247 157.5 -399t446.5 -152q282 0 446 142l-331 4l-97 223l-88 -2l8 -221l-317 -4l-27 121l56 -2l-13 342h-92l-10 321q-139 -148 -139 -373zM346 1040h668q153 -1 227 -74.5 t74 -220.5q0 -57 -21 -104t-50.5 -74t-59.5 -46t-51 -25l-21 -7l158 -221q157 154 157 437q0 77 -20 150t-65 141.5t-110 119.5t-163 82t-217 31q-323 0 -506 -189zM719 719l4 -135l250 4q32 0 54 21t22 48q0 28 -20.5 47t-49.5 19z" />
<glyph unicode="&#xaf;" d="M238 1470l886 -10l-12 -233l-858 -17z" />
<glyph unicode="&#xb0;" horiz-adv-x="876" d="M82 973q0 78 16.5 132t56 95.5t109.5 61.5t174 20q108 0 179 -20.5t109.5 -62.5t53.5 -95.5t15 -130.5q0 -87 -51.5 -145.5t-129 -82.5t-174.5 -24q-72 0 -133.5 13.5t-113 41.5t-81.5 78.5t-30 118.5zM317 977q0 -44 32 -58t97 -14q61 0 91 17t30 61q0 43 -32 59.5 t-103 16.5q-65 0 -90 -17.5t-25 -64.5z" />
<glyph unicode="&#xb1;" horiz-adv-x="983" d="M41 254l901 18l-10 -274h-885zM41 741l295 7l8 301l344 -7l-29 -288l283 6l-10 -275h-299l-17 -141l-282 -12l-4 153h-283z" />
<glyph unicode="&#xb2;" horiz-adv-x="860" d="M66 1217q153 32 337 32q106 0 187.5 -23t134.5 -79.5t53 -140.5q0 -37 -7.5 -67t-19 -52.5t-33.5 -41.5t-41.5 -32t-53 -26.5t-58.5 -21.5t-67 -20q-177 -52 -136 -153l177 6l10 78l201 16l-7 -205l-643 5q-11 51 -9 92t19 74t39.5 58t53 44.5t60.5 33t61 23.5t55 15.5 t42 9.5q8 1 11 2q54 13 71 26.5t17 36.5q0 47 -88 47q-56 0 -346 -45z" />
<glyph unicode="&#xb3;" horiz-adv-x="860" d="M49 1219q165 30 377 30q87 0 156 -12.5t123.5 -39.5t84 -74t29.5 -111q0 -46 -14 -84t-33.5 -59.5t-39.5 -35.5t-34 -19l-14 -5q4 -1 10.5 -2.5t23.5 -11t30 -23t23.5 -40t10.5 -60.5q0 -92 -89 -143.5t-247 -51.5q-93 0 -180.5 15t-128.5 30l-41 15l-6 127 q48 -20 158 -42t211 -18q26 2 42.5 16.5t16.5 41.5q0 26 -17.5 39.5t-41.5 15.5h-125l2 106q71 2 108 8q56 8 56 58q0 26 -27 40.5t-108 14.5q-50 0 -123.5 -8t-121.5 -16l-48 -9z" />
<glyph unicode="&#xb4;" horiz-adv-x="1435" d="M510 1249l295 307l379 -61l-422 -252z" />
<glyph unicode="&#xb5;" horiz-adv-x="1411" d="M31 1096l594 8l-15 -567q-4 -144 41.5 -211.5t118.5 -67.5q69 0 115 50t47 136l2 117l-158 -2l-16 541h596l-13 -887l123 -6l-4 -205h-522l14 137q-3 -32 -42 -68t-92.5 -58t-116.5 -9t-107 70l10 -451l-418 -20l21 950l-168 -2z" />
<glyph unicode="&#xb6;" horiz-adv-x="1671" d="M0 948q0 79 22 140.5t55 101t85.5 68t100 42t113 21t108.5 9t103 1.5h29l1014 6l-8 -559l-131 -4l-23 -1159l-438 -4l21 1182h-117v-1186l-445 -10l41 913h-30q-53 0 -96.5 3.5t-97 14.5t-95 30t-82.5 52t-68 78t-44 111.5t-17 148.5z" />
<glyph unicode="&#xb7;" horiz-adv-x="1021" d="M266 784l465 -14q-2 -39 -15.5 -167t-17.5 -128l-417 -6z" />
<glyph unicode="&#xb8;" d="M444 -313l154 409l211 15l-49 -424h-316z" />
<glyph unicode="&#xb9;" horiz-adv-x="860" d="M172 1108q45 -5 89 5t75.5 41t28.5 77l241 6l-2 -633l82 -4l2 -111h-477l-2 117l108 -2l-4 328h-135z" />
<glyph unicode="&#xba;" horiz-adv-x="1030" d="M82 918q0 115 20 196.5t68 143.5t133.5 92t210.5 30q131 0 217.5 -30.5t133.5 -93.5t65 -142.5t18 -195.5q0 -98 -35.5 -172t-97 -117.5t-136.5 -64.5t-161 -21q-70 0 -131.5 11.5t-118 39.5t-97.5 70t-65 107t-24 147zM375 834q0 -83 36.5 -110.5t112.5 -27.5 q69 0 104.5 33t35.5 115q0 85 -37.5 117t-118.5 32q-75 0 -104 -34.5t-29 -124.5z" />
<glyph unicode="&#xbb;" horiz-adv-x="1003" d="M0 248l246 393l-223 377l333 14l158 -391l-219 -401zM463 217l199 424l-170 397l313 -6l158 -391l-220 -401z" />
<glyph unicode="&#xbc;" horiz-adv-x="1900" d="M102 1108q45 -5 89 5t75.5 41t28.5 77l242 6l-2 -633l81 -4l2 -111h-477l-2 117l109 -2l-4 328h-135zM299 -55l930 1417l358 -29l-1065 -1405zM940 297l369 442l395 6l-43 -436l133 2l4 -121l-145 3l-8 -78l81 -4l3 -107h-486l-4 113l111 -2l2 69l-408 4zM1198 301h164 l8 184z" />
<glyph unicode="&#xbd;" horiz-adv-x="1970" d="M102 1108q45 -5 89 5t75.5 41t28.5 77l242 6l-2 -633l81 -4l2 -111h-477l-2 117l109 -2l-4 328h-135zM299 -55l930 1417l358 -29l-1065 -1405zM1155 727q154 33 338 33q106 0 187.5 -23.5t134.5 -80t53 -140.5q0 -51 -15 -90t-36 -63t-62.5 -45.5t-74.5 -33t-93 -28.5 q-177 -52 -135 -154l176 7l10 77l201 17l-6 -205l-643 4q-11 51 -9 92t19 74t39.5 58t53 44.5t60.5 33t61 23.5t55 15.5t42 9.5q4 1 6.5 1.5t4.5 0.5q54 13 71 26.5t17 37.5q0 47 -88 47q-56 0 -346 -45z" />
<glyph unicode="&#xbe;" horiz-adv-x="2007" d="M102 1219q165 30 377 30q87 0 156 -12.5t123.5 -39.5t84 -74t29.5 -111q0 -46 -14 -84t-34 -59.5t-39.5 -35.5t-33.5 -19l-14 -5q4 -1 10.5 -2.5t24 -11t30.5 -23t23.5 -40t10.5 -60.5q0 -92 -89 -143.5t-247 -51.5q-93 0 -180.5 15t-128.5 30l-41 15l-7 127 q48 -20 158 -42t211 -18q26 2 42.5 16.5t16.5 41.5q0 26 -17.5 39.5t-41.5 15.5h-125l2 106q72 2 109 8q55 8 55 58q0 26 -27 40.5t-108 14.5q-50 0 -123.5 -8t-121.5 -16l-48 -9zM467 -55l930 1417l358 -29l-1065 -1405zM1108 297l369 442l395 6l-43 -436l133 2l4 -121 l-145 3l-9 -78l82 -4l2 -107h-485l-4 113l111 -2l2 69l-408 4zM1366 301h164l8 184z" />
<glyph unicode="&#xbf;" horiz-adv-x="1193" d="M41 176q0 50 22.5 91t58.5 67.5t81.5 53t91 48t87.5 51.5t71.5 63.5t42 84.5t-1.5 115l452 -2q18 -73 -1.5 -139t-70 -115t-118 -85.5t-150.5 -60.5q-60 -17 -93 -37.5t-36 -38.5t13 -33.5t54 -24.5t87 -9q209 0 506 121l16 -463q-8 -3 -23.5 -8.5t-67.5 -19.5 t-107.5 -24.5t-141 -19t-172.5 -8.5q-130 0 -236 22t-189 68t-129 123t-46 180zM463 1102l479 8l6 -276l-465 4z" />
<glyph unicode="&#xc0;" horiz-adv-x="1812" d="M0 209h158l299 551l-250 -4l-31 563l1055 -19l434 -1105h143l4 -197l-894 -4l-9 196h172l-45 146l-428 4l-76 -141l205 -9l6 -188l-739 -4zM420 1679l438 50l238 -328l-312 -15zM682 537h301l-123 319z" />
<glyph unicode="&#xc1;" horiz-adv-x="1812" d="M0 209h158l299 551l-250 -4l-31 563l1055 -19l434 -1105h143l4 -197l-894 -4l-9 196h172l-45 146l-428 4l-76 -141l205 -9l6 -188l-739 -4zM682 537h301l-123 319zM737 1393l295 307l426 -62l-422 -252z" />
<glyph unicode="&#xc2;" horiz-adv-x="1812" d="M0 209h158l299 551l-250 -4l-31 563l1055 -19l434 -1105h143l4 -197l-894 -4l-9 196h172l-45 146l-428 4l-76 -141l205 -9l6 -188l-739 -4zM367 1401l258 354l411 6l154 -360l-348 -6l-70 129l-121 -117zM682 537h301l-123 319z" />
<glyph unicode="&#xc3;" horiz-adv-x="1812" d="M0 209h158l299 551l-250 -4l-31 563l1055 -19l434 -1105h143l4 -197l-894 -4l-9 196h172l-45 146l-428 4l-76 -141l205 -9l6 -188l-739 -4zM498 1442q6 15 18 39t51.5 86t81 110.5t104 89t124.5 43.5q54 3 105 -17t82.5 -41t65.5 -31t72.5 15t85.5 93l328 -64 q-6 -9 -16 -23.5t-41.5 -56t-64 -79t-78 -81.5t-88 -74t-90.5 -47t-89 -9q-56 11 -112 43.5t-91.5 57t-77 35.5t-89 -18.5t-107.5 -107.5zM682 537h301l-123 319z" />
<glyph unicode="&#xc4;" horiz-adv-x="1812" d="M0 209h158l299 551l-250 -4l-31 563l1055 -19l434 -1105h143l4 -197l-894 -4l-9 196h172l-45 146l-428 4l-76 -141l205 -9l6 -188l-739 -4zM225 1718l584 -14l-16 -277l-547 -18zM682 537h301l-123 319zM954 1710l551 4l-16 -276l-526 10z" />
<glyph unicode="&#xc5;" horiz-adv-x="1812" d="M0 209h158l299 551l-250 -4l-31 563l1055 -19l434 -1105h143l4 -197l-894 -4l-9 196h172l-45 146l-428 4l-76 -141l205 -9l6 -188l-739 -4zM573 1583q0 65 14 111.5t47.5 81.5t94 52t148.5 17q91 0 151.5 -17t92.5 -53t44.5 -81t12.5 -111q0 -108 -85 -160.5t-214 -52.5 q-62 0 -114.5 11t-96.5 35t-69.5 66.5t-25.5 100.5zM682 537l301 -2l-123 321zM772 1587q0 -37 27.5 -49t83.5 -12q51 0 76.5 14.5t25.5 50.5q0 37 -27.5 51.5t-87.5 14.5q-56 0 -77 -15t-21 -55z" />
<glyph unicode="&#xc6;" horiz-adv-x="2482" d="M10 209h199l444 551l-280 -4l26 563l2042 4l-26 -756h-361l-14 193l-524 -6v-185l286 4l-4 -204l-295 -13l4 -172l525 6l18 193l338 18v-395l-1528 -12l-8 196h172l-2 146l-416 4l-133 -141l207 -9l4 -188l-670 -4zM731 539l291 -4l-12 319z" />
<glyph unicode="&#xc7;" horiz-adv-x="1796" d="M20 653q0 109 24.5 202.5t65.5 160.5t95.5 121t112.5 88t119 57t112.5 32t95.5 9q81 0 152 -11.5t118.5 -29.5t86 -40t61 -44.5t37.5 -40.5t20 -29l6 -12v193l588 4l-61 -746l-570 -6q-6 18 -16.5 38.5t-34 51.5t-52.5 54.5t-74.5 40.5t-98.5 16q-73 -1 -131 -25.5 t-93 -64t-53 -87t-18 -98.5q0 -54 15.5 -106.5t46 -99.5t84.5 -76t124 -29q57 0 105 14t77.5 32.5t55.5 49t37.5 49.5t25.5 48l545 10l-22 -379l-244 -2l-23 199q-70 -98 -194 -157t-268 -75l-123 -332l-387 -8l176 363q-105 26 -193.5 75t-165 127t-120.5 196.5t-44 266.5z " />
<glyph unicode="&#xc8;" horiz-adv-x="1744" d="M41 1317l1601 6l-26 -756h-361l-12 193l-526 -6v-185l287 4l-5 -204l-294 -13l4 -172l526 6l16 193l340 18v-395l-1521 -10l-4 203h190l-27 555h-170zM420 1679l438 50l238 -328l-312 -15z" />
<glyph unicode="&#xc9;" horiz-adv-x="1744" d="M41 1317l1601 6l-26 -756h-361l-12 193l-526 -6v-185l287 4l-5 -204l-294 -13l4 -172l526 6l16 193l340 18v-395l-1521 -10l-4 203h190l-27 555h-170zM647 1393l295 307l426 -62l-422 -252z" />
<glyph unicode="&#xca;" horiz-adv-x="1744" d="M41 1317l1601 6l-26 -756h-361l-12 193l-526 -6v-185l287 4l-5 -204l-294 -13l4 -172l526 6l16 193l340 18v-395l-1521 -10l-4 203h190l-27 555h-170zM455 1401l258 354l411 6l154 -360l-348 -6l-70 129l-121 -117z" />
<glyph unicode="&#xcb;" horiz-adv-x="1744" d="M41 1317l1601 6l-26 -756h-361l-12 193l-526 -6v-185l287 4l-5 -204l-294 -13l4 -172l526 6l16 193l340 18v-395l-1521 -10l-4 203h190l-27 555h-170zM225 1718l584 -14l-16 -277l-547 -18zM954 1710l551 4l-16 -276l-526 10z" />
<glyph unicode="&#xcc;" horiz-adv-x="1064" d="M41 1315l983 8l-43 -565h-223l-4 -563l137 -9l18 -186h-782l-4 199l180 -4l-12 567h-219zM78 1679l438 50l238 -328l-312 -15z" />
<glyph unicode="&#xcd;" horiz-adv-x="1064" d="M41 1315l983 8l-43 -565h-223l-4 -563l137 -9l18 -186h-782l-4 199l180 -4l-12 567h-219zM342 1393l295 307l426 -62l-422 -252z" />
<glyph unicode="&#xce;" horiz-adv-x="1064" d="M41 1315l983 8l-43 -565h-223l-4 -563l137 -9l18 -186h-782l-4 199l180 -4l-12 567h-219zM145 1401l258 354l412 6l154 -360l-348 -6l-70 129l-121 -117z" />
<glyph unicode="&#xcf;" horiz-adv-x="1064" d="M37 1718l493 -14l-16 -277l-457 -18zM41 1315l983 8l-43 -565h-223l-4 -563l137 -9l18 -186h-782l-4 199l180 -4l-12 567h-219zM676 1710l418 4l-17 -276l-393 10z" />
<glyph unicode="&#xd0;" horiz-adv-x="1810" d="M51 1319q669 4 965 4q70 0 136 -6.5t143 -25t142.5 -48t128 -80t106.5 -116t70.5 -160t26.5 -209.5q0 -114 -26.5 -210.5t-71 -165t-107.5 -122t-131.5 -86.5t-147 -54t-149.5 -29.5t-145 -8.5l-848 -6l-16 199l154 -7l-11 166l-164 -2l-16 234l168 4l-10 168h-180z M731 188q55 5 227 5q88 0 159 31.5t117 102.5t46 171q0 57 -21 103t-54 75t-75.5 48.5t-83 27.5t-79.5 8l-228 -4l-2 -154l215 6l-10 -248l-209 -2z" />
<glyph unicode="&#xd1;" horiz-adv-x="1959" d="M41 1313l913 -10q125 -378 207 -560q36 -80 100 -210t110 -220l46 -90l-14 525l-164 6l-25 555l705 6l-29 -565l-151 12l-41 -756l-719 -53l-424 860l23 -629h184v-190l-647 10l-6 191l143 6l-33 559l-139 -6zM510 1411q3 8 9.5 20.5t27 50t43 72t57.5 76.5t70.5 73 t81 53t90.5 24q54 3 105 -17.5t82.5 -41t65.5 -30.5t72.5 15t85.5 94l330 -63q-6 -9 -16 -23.5t-42 -56.5t-64.5 -79.5t-78.5 -82.5t-88.5 -75t-90.5 -47t-89 -9q-42 9 -84 29t-70.5 40.5t-59 39.5t-57 26t-57.5 0.5t-67.5 -37.5t-79.5 -88z" />
<glyph unicode="&#xd2;" horiz-adv-x="1769" d="M31 688q0 123 32.5 224t84 168t125.5 118t147 79t158 45.5t148.5 22.5t129.5 5q69 0 141.5 -7.5t161 -27.5t168.5 -51.5t156.5 -84.5t132 -121t89.5 -166.5t34 -215.5q0 -118 -31.5 -218.5t-84 -173t-124.5 -130.5t-150.5 -95t-165.5 -61.5t-164.5 -34.5t-152.5 -10 t-150 9t-159 32.5t-158 59.5t-142.5 94t-117.5 132.5t-78.5 179t-29.5 228.5zM420 1694l438 49l238 -328l-338 12zM526 502q0 -127 101.5 -227.5t253.5 -100.5q156 0 257 94.5t101 239.5q0 142 -95 219.5t-270 77.5q-159 0 -253.5 -88.5t-94.5 -214.5z" />
<glyph unicode="&#xd3;" horiz-adv-x="1769" d="M31 688q0 123 32.5 224t84 168t125.5 118t147 79t158 45.5t148.5 22.5t129.5 5q69 0 141.5 -7.5t161 -27.5t168.5 -51.5t156.5 -84.5t132 -121t89.5 -166.5t34 -215.5q0 -118 -31.5 -218.5t-84 -173t-124.5 -130.5t-150.5 -95t-165.5 -61.5t-164.5 -34.5t-152.5 -10 t-150 9t-159 32.5t-158 59.5t-142.5 94t-117.5 132.5t-78.5 179t-29.5 228.5zM526 502q0 -127 101.5 -227.5t253.5 -100.5q156 0 257 94.5t101 239.5q0 142 -95 219.5t-270 77.5q-159 0 -253.5 -88.5t-94.5 -214.5zM684 1421l295 308l426 -62l-422 -252z" />
<glyph unicode="&#xd4;" horiz-adv-x="1769" d="M31 688q0 123 32.5 224t84 168t125.5 118t147 79t158 45.5t148.5 22.5t129.5 5q69 0 141.5 -7.5t161 -27.5t168.5 -51.5t156.5 -84.5t132 -121t89.5 -166.5t34 -215.5q0 -118 -31.5 -218.5t-84 -173t-124.5 -130.5t-150.5 -95t-165.5 -61.5t-164.5 -34.5t-152.5 -10 t-150 9t-159 32.5t-158 59.5t-142.5 94t-117.5 132.5t-78.5 179t-29.5 228.5zM483 1401l258 354l412 6l154 -360l-349 -6l-69 129l-121 -117zM526 502q0 -127 101.5 -227.5t253.5 -100.5q156 0 257 94.5t101 239.5q0 142 -95 219.5t-270 77.5q-159 0 -253.5 -88.5 t-94.5 -214.5z" />
<glyph unicode="&#xd5;" horiz-adv-x="1769" d="M31 688q0 123 32.5 224t84 168t125.5 118t147 79t158 45.5t148.5 22.5t129.5 5q69 0 141.5 -7.5t161 -27.5t168.5 -51.5t156.5 -84.5t132 -121t89.5 -166.5t34 -215.5q0 -118 -31.5 -218.5t-84 -173t-124.5 -130.5t-150.5 -95t-165.5 -61.5t-164.5 -34.5t-152.5 -10 t-150 9t-159 32.5t-158 59.5t-142.5 94t-117.5 132.5t-78.5 179t-29.5 228.5zM461 1442q6 15 18 39t51.5 86t81 110.5t104 89t124.5 43.5q54 3 105 -17t82.5 -41t65.5 -31t72.5 15t85.5 93l328 -64q-6 -9 -16 -23.5t-41.5 -56t-64 -79t-78 -81.5t-88 -74t-90.5 -47t-89 -9 q-56 11 -112 43.5t-91.5 57t-77 35.5t-89 -18.5t-107.5 -107.5zM526 502q0 -127 101.5 -227.5t253.5 -100.5q156 0 257 94.5t101 239.5q0 142 -95 219.5t-270 77.5q-159 0 -253.5 -88.5t-94.5 -214.5z" />
<glyph unicode="&#xd6;" horiz-adv-x="1769" d="M31 688q0 123 32.5 224t84 168t125.5 118t147 79t158 45.5t148.5 22.5t129.5 5q69 0 141.5 -7.5t161 -27.5t168.5 -51.5t156.5 -84.5t132 -121t89.5 -166.5t34 -215.5q0 -118 -31.5 -218.5t-84 -173t-124.5 -130.5t-150.5 -95t-165.5 -61.5t-164.5 -34.5t-152.5 -10 t-150 9t-159 32.5t-158 59.5t-142.5 94t-117.5 132.5t-78.5 179t-29.5 228.5zM225 1718l584 -14l-16 -277l-547 -18zM526 502q0 -127 101.5 -227.5t253.5 -100.5q156 0 257 94.5t101 239.5q0 142 -95 219.5t-270 77.5q-159 0 -253.5 -88.5t-94.5 -214.5zM954 1710l551 4 l-16 -276l-526 10z" />
<glyph unicode="&#xd7;" horiz-adv-x="983" d="M41 797q14 15 37.5 40t73.5 77.5t83 86.5t33 33q0 -2 60.5 -62t121.5 -120l60 -59l252 251l178 -196l-238 -242l228 -196l-207 -238l-223 221l-238 -227l-211 178l242 242z" />
<glyph unicode="&#xd8;" horiz-adv-x="1769" d="M31 688q0 123 32.5 224t84 168t125.5 118t147 79t158 45.5t148.5 22.5t129.5 5q136 0 289 -32t282 -104l175 164l262 -237q-78 -64 -199 -158q74 -132 74 -307q0 -118 -31.5 -218.5t-84 -173t-124.5 -130.5t-150.5 -95t-165.5 -61.5t-164.5 -34.5t-152.5 -10 q-223 0 -413 78l-181 -142l-108 134l119 102q-252 196 -252 563zM526 502q0 -72 35 -137l479 415q-73 25 -166 25q-159 0 -253.5 -88.5t-94.5 -214.5zM696 221q86 -47 185 -47q156 0 257 94.5t101 239.5q0 65 -22 123q-169 -135 -521 -410z" />
<glyph unicode="&#xd9;" horiz-adv-x="1761" d="M41 1315l774 4l-4 -561l-166 -4v-410q0 -135 127 -135h219q31 0 53 7t33 18.5t18 27t7.5 32.5t1.5 34.5t0 33.5l16 392h-155l-4 565l759 6l-14 -565l-129 2l-41 -369q-5 -43 -10 -72t-17.5 -73t-30 -74t-49.5 -64.5t-73 -55t-102.5 -35t-137.5 -15.5l-526 -8 q-75 -1 -137 16t-101.5 41.5t-70.5 64.5t-46.5 72.5t-26.5 78t-14 67t-5 53.5q-1 6 -1 8l-24 363h-111zM422 1704l438 49l238 -328l-312 -14z" />
<glyph unicode="&#xda;" horiz-adv-x="1761" d="M41 1315l774 4l-4 -561l-166 -4v-410q0 -135 127 -135h219q31 0 53 7t33 18.5t18 27t7.5 32.5t1.5 34.5t0 33.5l16 392h-155l-4 565l759 6l-14 -565l-129 2l-41 -369q-5 -43 -10 -72t-17.5 -73t-30 -74t-49.5 -64.5t-73 -55t-102.5 -35t-137.5 -15.5l-526 -8 q-75 -1 -137 16t-101.5 41.5t-70.5 64.5t-46.5 72.5t-26.5 78t-14 67t-5 53.5q-1 6 -1 8l-24 363h-111zM690 1411l295 307l426 -61l-422 -252z" />
<glyph unicode="&#xdb;" horiz-adv-x="1761" d="M41 1315l774 4l-4 -561l-166 -4v-410q0 -135 127 -135h219q31 0 53 7t33 18.5t18 27t7.5 32.5t1.5 34.5t0 33.5l16 392h-155l-4 565l759 6l-14 -565l-129 2l-41 -369q-5 -43 -10 -72t-17.5 -73t-30 -74t-49.5 -64.5t-73 -55t-102.5 -35t-137.5 -15.5l-526 -8 q-75 -1 -137 16t-101.5 41.5t-70.5 64.5t-46.5 72.5t-26.5 78t-14 67t-5 53.5q-1 6 -1 8l-24 363h-111zM530 1401l258 354l412 6l154 -360l-348 -6l-70 129l-121 -117z" />
<glyph unicode="&#xdc;" horiz-adv-x="1761" d="M41 1315l774 4l-4 -561l-166 -4v-410q0 -135 127 -135h219q31 0 53 7t33 18.5t18 27t7.5 32.5t1.5 34.5t0 33.5l16 392h-155l-4 565l759 6l-14 -565l-129 2l-41 -369q-5 -43 -10 -72t-17.5 -73t-30 -74t-49.5 -64.5t-73 -55t-102.5 -35t-137.5 -15.5l-526 -8 q-75 -1 -137 16t-101.5 41.5t-70.5 64.5t-46.5 72.5t-26.5 78t-14 67t-5 53.5q-1 6 -1 8l-24 363h-111zM256 1718l567 -14v-277l-549 -18zM954 1710l551 4l-16 -276l-526 10z" />
<glyph unicode="&#xdd;" horiz-adv-x="1949" d="M41 1321h915l-12 -559l-133 -4l219 -180l254 184l-154 -4l-4 561l783 6l-43 -565l-183 -4l-481 -383l6 -189l187 4l-6 -186l-885 -8l-17 194l248 -2v160l-502 410l-157 4zM797 1393l295 307l426 -62l-422 -252z" />
<glyph unicode="&#xde;" horiz-adv-x="1738" d="M41 1325l674 -6l-4 -225l422 -4q68 -1 138 -10.5t153 -39t146 -74.5t105.5 -123.5t42.5 -180.5q0 -103 -33.5 -183.5t-86 -128.5t-124.5 -79t-141 -42.5t-143 -11.5h-492l2 -217l-610 -12l-6 217l149 -4l3 557h-181zM690 414q352 4 418 4q55 0 102 39.5t47 97.5 q0 113 -149 113l-414 -6z" />
<glyph unicode="&#xdf;" horiz-adv-x="1724" d="M41 186l186 15l-57 776q-5 80 5 150t44 138.5t91.5 117t155.5 78.5t228 30q79 0 146 -15t115 -41.5t87.5 -62t63.5 -77t42 -86.5t23 -90.5t7.5 -88.5t-4.5 -80q-14 -101 -8.5 -171t46 -114.5t125.5 -68.5q58 -17 99.5 -32t96 -41.5t88.5 -55t58.5 -71t24.5 -91.5 q0 -139 -105 -230t-274 -91q-55 0 -100.5 9.5t-74 21.5t-54.5 32.5t-37.5 34t-27 34t-19.5 25.5l-11 -141l-182 -8l6 297l301 6q14 -44 65 -85.5t128 -41.5q65 0 112 37q52 41 17 84q-37 43 -152 73l-200 50q-68 17 -120.5 44t-85.5 55t-55.5 67.5t-32.5 68.5t-14 72 t-3.5 65t2.5 59q1 10 1 15q10 193 -96 193q-47 0 -66 -49.5t-16 -145.5l29 -864l-594 8z" />
<glyph unicode="&#xe0;" horiz-adv-x="1320" d="M20 276q0 146 96.5 212.5t264.5 66.5q90 0 166 -6.5t136.5 -16t72.5 -10.5q3 23 4 34.5t0.5 32t-5.5 31.5t-16 25t-28 21.5t-44 12.5t-63 5q-76 0 -204 -26t-218 -52l-90 -26l29 487q28 6 77.5 15.5t196.5 25.5t285 16q237 0 375 -109t129 -302l-27 -541l133 8l-2 -180 h-536l4 160q-7 -8 -21 -20t-57.5 -44t-88 -56.5t-109.5 -44.5t-126 -20q-170 0 -252 71t-82 230zM266 1516l379 61l238 -328l-252 -26zM446 295q0 -40 29.5 -64t69.5 -24q39 0 106 50t92 105q-98 15 -174 15q-57 0 -90 -21t-33 -61z" />
<glyph unicode="&#xe1;" horiz-adv-x="1320" d="M20 276q0 146 96.5 212.5t264.5 66.5q90 0 166 -6.5t136.5 -16t72.5 -10.5q3 23 4 34.5t0.5 32t-5.5 31.5t-16 25t-28 21.5t-44 12.5t-63 5q-76 0 -204 -26t-218 -52l-90 -26l29 487q28 6 77.5 15.5t196.5 25.5t285 16q237 0 375 -109t129 -302l-27 -541l133 8l-2 -180 h-536l4 160q-7 -8 -21 -20t-57.5 -44t-88 -56.5t-109.5 -44.5t-126 -20q-170 0 -252 71t-82 230zM446 295q0 -40 29.5 -64t69.5 -24q39 0 106 50t92 105q-98 15 -174 15q-57 0 -90 -21t-33 -61zM449 1249l294 307l379 -61l-422 -252z" />
<glyph unicode="&#xe2;" horiz-adv-x="1320" d="M20 276q0 146 96.5 212.5t264.5 66.5q90 0 166 -6.5t136.5 -16t72.5 -10.5q3 23 4 34.5t0.5 32t-5.5 31.5t-16 25t-28 21.5t-44 12.5t-63 5q-76 0 -204 -26t-218 -52l-90 -26l29 487q28 6 77.5 15.5t196.5 25.5t285 16q237 0 375 -109t129 -302l-27 -541l133 8l-2 -180 h-536l4 160q-7 -8 -21 -20t-57.5 -44t-88 -56.5t-109.5 -44.5t-126 -20q-170 0 -252 71t-82 230zM305 1223l283 354l278 6l236 -360l-273 -6l-145 129l-164 -123h-215zM446 295q0 -40 29.5 -64t69.5 -24q39 0 106 50t92 105q-98 15 -174 15q-57 0 -90 -21t-33 -61z" />
<glyph unicode="&#xe3;" horiz-adv-x="1320" d="M20 276q0 146 96.5 212.5t264.5 66.5q90 0 166 -6.5t136.5 -16t72.5 -10.5q3 23 4 34.5t0.5 32t-5.5 31.5t-16 25t-28 21.5t-44 12.5t-63 5q-76 0 -204 -26t-218 -52l-90 -26l29 487q28 6 77.5 15.5t196.5 25.5t285 16q237 0 375 -109t129 -302l-27 -541l133 8l-2 -180 h-536l4 160q-7 -8 -21 -20t-57.5 -44t-88 -56.5t-109.5 -44.5t-126 -20q-170 0 -252 71t-82 230zM186 1253q6 12 17 32.5t48 72.5t76 92.5t97.5 74.5t116.5 36q51 2 98 -14.5t76.5 -34t61.5 -26t67.5 12.5t79.5 78l307 -53q-5 -7 -14.5 -19.5t-39.5 -47.5t-60 -66t-73 -68 t-82.5 -62.5t-84 -39.5t-82.5 -7q-52 9 -104.5 36.5t-85.5 48t-71.5 30t-83 -15.5t-100.5 -90zM446 295q0 -40 29.5 -64t69.5 -24q39 0 106 50t92 105q-98 15 -174 15q-57 0 -90 -21t-33 -61z" />
<glyph unicode="&#xe4;" horiz-adv-x="1320" d="M20 276q0 146 96.5 212.5t264.5 66.5q90 0 166 -6.5t136.5 -16t72.5 -10.5q3 23 4 34.5t0.5 32t-5.5 31.5t-16 25t-28 21.5t-44 12.5t-63 5q-76 0 -204 -26t-218 -52l-90 -26l29 487q28 6 77.5 15.5t196.5 25.5t285 16q237 0 375 -109t129 -302l-27 -541l133 8l-2 -180 h-536l4 160q-7 -8 -21 -20t-57.5 -44t-88 -56.5t-109.5 -44.5t-126 -20q-170 0 -252 71t-82 230zM180 1470l494 -10l-15 -233l-462 -17zM446 295q0 -40 29.5 -64t69.5 -24q39 0 106 50t92 105q-98 15 -174 15q-57 0 -90 -21t-33 -61zM774 1464l465 4l-14 -233l-445 8z" />
<glyph unicode="&#xe5;" horiz-adv-x="1320" d="M20 276q0 146 96.5 212.5t264.5 66.5q90 0 166 -6.5t136.5 -16t72.5 -10.5q3 23 4 34.5t0.5 32t-5.5 31.5t-16 25t-28 21.5t-44 12.5t-63 5q-76 0 -204 -26t-218 -52l-90 -26l29 487q28 6 77.5 15.5t196.5 25.5t285 16q238 0 375.5 -108t128.5 -303l-27 -541l133 8 l-2 -180h-536l4 160q-7 -8 -21 -20t-57.5 -44t-88 -56.5t-109.5 -44.5t-126 -20q-170 0 -252 71t-82 230zM408 1374q0 116 57.5 173t206.5 57q79 0 132 -15.5t81.5 -47.5t39.5 -71t11 -96q0 -64 -38.5 -107.5t-95 -61t-128.5 -17.5q-54 0 -99.5 9.5t-84 30t-60.5 58 t-22 88.5zM446 295q0 -40 29.5 -64t69.5 -24q39 0 106 50t92 105q-98 15 -174 15q-57 0 -90 -21t-33 -61zM582 1376q0 -32 23.5 -42.5t72.5 -10.5q45 0 67.5 12.5t22.5 44.5t-24 45t-76 13q-49 0 -67.5 -13.5t-18.5 -48.5z" />
<glyph unicode="&#xe6;" horiz-adv-x="2045" d="M20 274q0 146 96.5 212.5t264.5 66.5q90 0 166 -6.5t136.5 -16t72.5 -10.5q3 23 4 34.5t0.5 32t-5.5 31.5t-16 25t-28 21.5t-44 12.5t-63 5q-76 0 -204 -26t-218 -52l-90 -26l29 487q28 6 77.5 15.5t196.5 25.5t285 16q92 0 152 -16t126 -55q143 96 383 96 q89 0 168.5 -12t155 -41t135 -72t103 -109t64 -149.5t14 -195.5t-43.5 -244l-792 -2q0 -6 2 -16.5t16.5 -36.5t38 -46t74 -36.5t117.5 -16.5q108 0 240.5 22t210.5 44l79 22l-35 -195q-36 -12 -96 -29t-205.5 -46t-243.5 -29q-423 0 -559 248q-96 -234 -430 -234 q-170 0 -252 71t-82 230zM446 293q0 -40 29.5 -64t69.5 -24q39 0 106 50t92 105q-98 15 -174 15q-57 0 -90 -21t-33 -61zM1135.5 512q-0.5 -15 1.5 -24l2 -9l411 15q3 6 5.5 16.5t-0.5 36.5t-19 45.5t-62.5 36t-119.5 16.5q-54 0 -95 -9t-63.5 -24t-37 -32.5t-18.5 -35 t-4.5 -32.5z" />
<glyph unicode="&#xe7;" horiz-adv-x="1376" d="M61 541q0 84 10.5 160.5t39.5 156t74 137.5t120 94.5t172 36.5q71 0 130 -23.5t98 -59.5t69.5 -85t47 -93.5t26.5 -92.5l-25 328h492l-43 -578l-447 -18q-1 5 -4 13t-16 28t-29.5 35.5t-48.5 28t-70 12.5q-50 0 -87.5 -20.5t-59 -54t-31.5 -71t-10 -78.5 q0 -94 47.5 -161.5t130.5 -67.5q49 0 86.5 16.5t58 45t31.5 57t15 61.5l403 -4l-10 -395l-221 -4l18 217q-128 -177 -381 -201l-37 -274h-315l115 293q-163 53 -256 206t-93 355z" />
<glyph unicode="&#xe8;" horiz-adv-x="1384" d="M61 483q0 342 157 503t462 161q89 0 168.5 -12t155.5 -41t135.5 -72t103 -109t64 -149.5t14 -195.5t-44.5 -244l-793 -2q0 -6 2 -16.5t16.5 -36.5t38.5 -46t74.5 -36.5t118.5 -16.5q108 0 240.5 22t211.5 44l79 22l-35 -195q-36 -12 -96 -29t-206 -46t-245 -29 q-55 0 -105 3.5t-115 17t-118.5 35.5t-107.5 62t-91 93.5t-60.5 133.5t-23.5 179zM307 1516l379 61l238 -328l-252 -26zM476 496l3 -17l412 15q1 3 3 8.5t3 21t-2 30t-15 32t-33.5 30t-61.5 21t-93 8.5q-74 0 -123 -17t-66.5 -41.5t-24 -49t-2.5 -41.5z" />
<glyph unicode="&#xe9;" horiz-adv-x="1384" d="M61 483q0 342 157 503t462 161q89 0 168.5 -12t155.5 -41t135.5 -72t103 -109t64 -149.5t14 -195.5t-44.5 -244l-793 -2q0 -6 2 -16.5t16.5 -36.5t38.5 -46t74.5 -36.5t118.5 -16.5q108 0 240.5 22t211.5 44l79 22l-35 -195q-36 -12 -96 -29t-206 -46t-245 -29 q-55 0 -105 3.5t-115 17t-118.5 35.5t-107.5 62t-91 93.5t-60.5 133.5t-23.5 179zM476 496l3 -17l412 15q1 3 3 8.5t3 21t-2 30t-15 32t-33.5 30t-61.5 21t-93 8.5q-74 0 -123 -17t-66.5 -41.5t-24 -49t-2.5 -41.5zM489 1249l295 307l379 -61l-422 -252z" />
<glyph unicode="&#xea;" horiz-adv-x="1384" d="M61 483q0 342 157 503t462 161q89 0 168.5 -12t155.5 -41t135.5 -72t103 -109t64 -149.5t14 -195.5t-44.5 -244l-793 -2q0 -6 2 -16.5t16.5 -36.5t38.5 -46t74.5 -36.5t118.5 -16.5q108 0 240.5 22t211.5 44l79 22l-35 -195q-36 -12 -96 -29t-206 -46t-245 -29 q-55 0 -105 3.5t-115 17t-118.5 35.5t-107.5 62t-91 93.5t-60.5 133.5t-23.5 179zM346 1223l283 354l278 6l236 -360l-273 -6l-145 129l-164 -123h-215zM476 496l3 -17l412 15q1 3 3 8.5t3 21t-2 30t-15 32t-33.5 30t-61.5 21t-93 8.5q-74 0 -123 -17t-66.5 -41.5t-24 -49 t-2.5 -41.5z" />
<glyph unicode="&#xeb;" horiz-adv-x="1384" d="M61 483q0 342 157 503t462 161q89 0 168.5 -12t155.5 -41t135.5 -72t103 -109t64 -149.5t14 -195.5t-44.5 -244l-793 -2q0 -6 2 -16.5t16.5 -36.5t38.5 -46t74.5 -36.5t118.5 -16.5q108 0 240.5 22t211.5 44l79 22l-35 -195q-36 -12 -96 -29t-206 -46t-245 -29 q-55 0 -105 3.5t-115 17t-118.5 35.5t-107.5 62t-91 93.5t-60.5 133.5t-23.5 179zM170 1470l494 -10l-15 -233l-463 -17zM476 496l3 -17l412 15q1 3 3 8.5t3 21t-2 30t-15 32t-33.5 30t-61.5 21t-93 8.5q-74 0 -123 -17t-66.5 -41.5t-24 -49t-2.5 -41.5zM852 1464l465 4 l-14 -233l-445 8z" />
<glyph unicode="&#xec;" horiz-adv-x="802" d="M41 1087l602 7l-14 -906l153 -6l-14 -182l-692 6l-8 176h153l-8 385l-158 -6zM84 1530l336 108l151 -389l-252 -26z" />
<glyph unicode="&#xed;" horiz-adv-x="802" d="M41 1087l602 7l-14 -906l153 -6l-14 -182l-692 6l-8 176h153l-8 385l-158 -6zM166 1249l242 346l378 -61l-313 -287z" />
<glyph unicode="&#xee;" horiz-adv-x="802" d="M-4 1223l283 354l278 6l236 -360l-273 -6l-145 129l-164 -123h-215zM41 1087l602 7l-14 -906l153 -6l-14 -182l-692 6l-8 176h153l-8 385l-158 -6z" />
<glyph unicode="&#xef;" horiz-adv-x="802" d="M25 1511l340 -10l-15 -274l-309 -17zM41 1087l602 7l-14 -906l153 -6l-14 -182l-692 6l-8 176h153l-8 385l-158 -6zM440 1505l297 4l-14 -274l-277 8z" />
<glyph unicode="&#xf0;" horiz-adv-x="1339" d="M41 393q0 131 27.5 233t84.5 179t152.5 117.5t224.5 40.5q80 0 149 -20.5t113 -49.5t77 -64t48 -61.5t19 -44.5q0 198 -115 289l-35 -64l-235 66l20 80q-100 5 -245 -25l94 393q124 6 248 -12l14 57h405l-96 -178q287 -191 287 -622q0 -752 -614 -752q-99 0 -187 13.5 t-169 46.5t-139.5 82t-93 125t-34.5 171zM459 373q0 -63 14.5 -103t45 -60t65.5 -27t88 -7q100 0 150 46.5t50 164.5q0 121 -53.5 167t-169.5 46q-107 0 -148.5 -49t-41.5 -178z" />
<glyph unicode="&#xf1;" horiz-adv-x="1433" d="M41 1102h541l41 -375q27 182 118.5 289.5t239.5 107.5q97 0 172 -57.5t110.5 -138.5t34.5 -164l-6 -584l121 -4l-2 -184l-532 4l18 489q2 52 -19.5 82.5t-55 35.5t-71.5 -3t-72 -29t-54 -47v-340l131 2v-194l-682 14l-6 178l165 -4l-10 373l-166 -2zM195 1253 q6 12 17 32.5t47.5 72.5t75.5 92.5t97.5 74.5t116.5 36q51 2 98 -14.5t76.5 -34t61.5 -26t67.5 12.5t79.5 78l307 -53q-5 -7 -14.5 -19.5t-39.5 -47.5t-60 -66t-73 -68t-82.5 -62.5t-84 -39.5t-82.5 -7q-52 9 -104.5 36.5t-85.5 48t-71.5 30t-83 -15.5t-100.5 -90z" />
<glyph unicode="&#xf2;" d="M61 492q0 131 17.5 230.5t60 183t113 136.5t177.5 82t251 29q150 0 259 -30t178 -83t109.5 -138t56 -182t15.5 -228q0 -113 -33.5 -204t-91 -152.5t-136.5 -102.5t-167 -59.5t-186 -18.5q-99 0 -187 17t-169 57t-139.5 100.5t-93 153t-34.5 209.5zM262 1516l379 61 l238 -328l-252 -26zM473 360q0 -47 11 -81t28.5 -54t47 -31t59.5 -14.5t73 -3.5q104 0 155.5 43.5t51.5 155.5t-54.5 155t-174.5 43q-111 0 -154 -46t-43 -167z" />
<glyph unicode="&#xf3;" d="M61 492q0 131 17.5 230.5t60 183t113 136.5t177.5 82t251 29q150 0 259 -30t178 -83t109.5 -138t56 -182t15.5 -228q0 -113 -33.5 -204t-91 -152.5t-136.5 -102.5t-167 -59.5t-186 -18.5q-99 0 -187 17t-169 57t-139.5 100.5t-93 153t-34.5 209.5zM473 360q0 -47 11 -81 t28.5 -54t47 -31t59.5 -14.5t73 -3.5q104 0 155.5 43.5t51.5 155.5t-54.5 155t-174.5 43q-111 0 -154 -46t-43 -167zM516 1249l295 307l379 -61l-422 -252z" />
<glyph unicode="&#xf4;" d="M61 492q0 131 17.5 230.5t60 183t113 136.5t177.5 82t251 29q150 0 259 -30t178 -83t109.5 -138t56 -182t15.5 -228q0 -113 -33.5 -204t-91 -152.5t-136.5 -102.5t-167 -59.5t-186 -18.5q-99 0 -187 17t-169 57t-139.5 100.5t-93 153t-34.5 209.5zM346 1223l283 354 l278 6l236 -360l-273 -6l-145 129l-164 -123h-215zM473 360q0 -47 11 -81t28.5 -54t47 -31t59.5 -14.5t73 -3.5q104 0 155.5 43.5t51.5 155.5t-54.5 155t-174.5 43q-111 0 -154 -46t-43 -167z" />
<glyph unicode="&#xf5;" d="M61 492q0 131 17.5 230.5t60 183t113 136.5t177.5 82t251 29q150 0 259 -30t178 -83t109.5 -138t56 -182t15.5 -228q0 -113 -33.5 -204t-91 -152.5t-136.5 -102.5t-167 -59.5t-186 -18.5q-99 0 -187 17t-169 57t-139.5 100.5t-93 153t-34.5 209.5zM250 1253q6 12 17 32.5 t47.5 72.5t75.5 92.5t97.5 74.5t116.5 36q51 2 98 -14.5t76.5 -34t61.5 -26t67.5 12.5t79.5 78l307 -53q-5 -7 -14.5 -19.5t-39.5 -47.5t-60 -66t-73 -68t-82.5 -62.5t-84 -39.5t-82.5 -7q-52 9 -104.5 36.5t-85.5 48t-71.5 30t-82.5 -15.5t-100 -90zM473 360q0 -47 11 -81 t28.5 -54t47 -31t59.5 -14.5t73 -3.5q104 0 155.5 43.5t51.5 155.5t-54.5 155t-174.5 43q-111 0 -154 -46t-43 -167z" />
<glyph unicode="&#xf6;" d="M61 492q0 131 17.5 230.5t60 183t113 136.5t177.5 82t251 29q150 0 259 -30t178 -83t109.5 -138t56 -182t15.5 -228q0 -113 -33.5 -204t-91 -152.5t-136.5 -102.5t-167 -59.5t-186 -18.5q-99 0 -187 17t-169 57t-139.5 100.5t-93 153t-34.5 209.5zM164 1470l493 -10 l-14 -233l-463 -17zM473 360q0 -47 11 -81t28.5 -54t47 -31t59.5 -14.5t73 -3.5q104 0 155.5 43.5t51.5 155.5t-54.5 155t-174.5 43q-111 0 -154 -46t-43 -167zM758 1464l465 4l-15 -233l-444 8z" />
<glyph unicode="&#xf7;" horiz-adv-x="983" d="M41 717l901 18l-10 -274h-885zM309 811q0 287 4 287l373 -11l-4 -280zM319 381h349q1 -20 3 -52t6 -100t6 -113.5t1 -45.5l-358 18z" />
<glyph unicode="&#xf8;" d="M61 492q0 131 17.5 230.5t60 183t113 136.5t177.5 82t251 29q247 0 393 -84l82 119q12 -8 30.5 -22t58 -43t64.5 -48.5t23 -19.5q-1 0 -112 -137q79 -146 79 -426q0 -113 -33.5 -204t-91 -152.5t-136.5 -102.5t-167 -59.5t-186 -18.5q-107 0 -213 25l-104 -132l-99 60 l78 112q-132 59 -208.5 176t-76.5 296zM473 360q0 -69 27 -118l227 327q-36 4 -57 4q-111 0 -154 -46t-43 -167zM629 178q20 -2 63 -2q104 0 155.5 43.5t51.5 155.5q0 68 -22 114z" />
<glyph unicode="&#xf9;" horiz-adv-x="1544" d="M31 1096l594 8l-11 -717q-2 -91 30 -149t95 -58q66 0 128.5 87.5t64.5 176.5l2 117l-158 -2l-16 541h596l-15 -907l162 14l-4 -205h-559v176q-24 -32 -56.5 -62.5t-80.5 -62.5t-114.5 -51.5t-139.5 -19.5q-151 0 -237.5 91.5t-92.5 233.5l-10 246l-168 -2zM307 1516 l379 61l238 -328l-252 -26z" />
<glyph unicode="&#xfa;" horiz-adv-x="1544" d="M31 1096l594 8l-11 -717q-2 -91 30 -149t95 -58q66 0 128.5 87.5t64.5 176.5l2 117l-158 -2l-16 541h596l-15 -907l162 14l-4 -205h-559v176q-24 -32 -56.5 -62.5t-80.5 -62.5t-114.5 -51.5t-139.5 -19.5q-151 0 -237.5 91.5t-92.5 233.5l-10 246l-168 -2zM559 1249 l295 307l379 -61l-422 -252z" />
<glyph unicode="&#xfb;" horiz-adv-x="1544" d="M31 1096l594 8l-11 -717q-2 -91 30 -149t95 -58q66 0 128.5 87.5t64.5 176.5l2 117l-158 -2l-16 541h596l-15 -907l162 14l-4 -205h-559v176q-24 -32 -56.5 -62.5t-80.5 -62.5t-114.5 -51.5t-139.5 -19.5q-151 0 -237.5 91.5t-92.5 233.5l-10 246l-168 -2zM346 1223 l283 354l278 6l236 -360l-273 -6l-145 129l-164 -123h-215z" />
<glyph unicode="&#xfc;" horiz-adv-x="1544" d="M31 1096l594 8l-11 -717q-2 -91 30 -149t95 -58q66 0 128.5 87.5t64.5 176.5l2 117l-158 -2l-16 541h596l-15 -907l162 14l-4 -205h-559v176q-24 -32 -56.5 -62.5t-80.5 -62.5t-114.5 -51.5t-139.5 -19.5q-151 0 -237.5 92.5t-92.5 232.5l-10 246l-168 -2zM170 1470 l494 -10l-15 -233l-463 -17zM764 1464l465 4l-15 -233l-444 8z" />
<glyph unicode="&#xfd;" horiz-adv-x="1488" d="M31 1087l696 13v-553l-117 2l183 -320l194 316h-147l4 561l614 -4l-20 -561h-172l-451 -768l227 -2l19 -181h-742l-6 193l207 -2l135 209h-139l-334 549l-135 2zM588 1249l295 307l379 -61l-422 -252z" />
<glyph unicode="&#xfe;" horiz-adv-x="1409" d="M41 1468l569 5l-10 -635q26 77 55 127.5t73 88t105 54t146 16.5q173 0 276 -163.5t103 -432.5q0 -266 -110.5 -411.5t-303.5 -145.5q-50 0 -96.5 10.5t-80.5 27.5t-63 37.5t-48.5 41.5t-33.5 38t-20 28l-6 10v-541l-436 -2l8 1292l-113 -6zM587 431q14 -69 55 -113 t83.5 -65.5t77.5 -21.5q58 0 94.5 57.5t36.5 129.5q0 36 -7.5 73t-22.5 73t-43.5 58.5t-65.5 22.5q-46 0 -96.5 -12.5t-77.5 -25.5l-27 -13q-21 -94 -7 -163z" />
<glyph unicode="&#xff;" horiz-adv-x="1488" d="M31 1087l696 13v-553l-117 2l183 -320l194 316h-147l4 561l614 -4l-20 -561h-172l-451 -768l227 -2l19 -181h-742l-6 193l207 -2l135 209h-139l-334 549l-135 2zM170 1470l494 -10l-15 -233l-463 -17zM852 1464l465 4l-14 -233l-445 8z" />
<glyph unicode="&#x152;" horiz-adv-x="2719" d="M31 688q0 123 32.5 224t84 168t125.5 118t147 79t158 45.5t148.5 22.5t129.5 5q149 0 281 -33l1480 6l-26 -756h-361l-14 193l-524 -6v-185l286 4l-4 -204l-295 -13l4 -172l525 6l18 193l338 18v-395l-1401 -10q-139 -43 -297 -43q-75 0 -150 9t-159 32.5t-158 59.5 t-142.5 94t-117.5 132.5t-78.5 179t-29.5 228.5zM526 502q0 -127 101.5 -227.5t253.5 -100.5q156 0 257 94.5t101 239.5q0 142 -95 219.5t-270 77.5q-159 0 -253.5 -88.5t-94.5 -214.5z" />
<glyph unicode="&#x153;" horiz-adv-x="2220" d="M61 492q0 131 17.5 230.5t60 183t113 136.5t177.5 82t251 29q288 0 436 -113q149 107 400 107q89 0 168.5 -12t155 -41t135 -72t103 -109t64 -149.5t14 -195.5t-44.5 -244l-792 -2q0 -6 2 -16.5t16.5 -36.5t38.5 -46t74.5 -36.5t118.5 -16.5q108 0 240.5 22t210.5 44 l79 22l-35 -195q-36 -12 -96 -29t-205.5 -46t-244.5 -29q-274 0 -428 104q-158 -108 -406 -108q-99 0 -187 17t-169 57t-139.5 100.5t-93 153t-34.5 209.5zM473 360q0 -47 11 -81t28.5 -54t47 -31t59.5 -14.5t73 -3.5q104 0 155.5 43.5t51.5 155.5t-54.5 155t-174.5 43 q-111 0 -154 -46t-43 -167zM1312 496l3 -17l411 15q3 6 5.5 16.5t-0.5 36.5t-19.5 45.5t-63.5 36t-120 16.5q-74 0 -123 -17t-66.5 -41.5t-24 -49t-2.5 -41.5z" />
<glyph unicode="&#x178;" horiz-adv-x="1949" d="M41 1321h915l-12 -559l-133 -4l219 -180l254 184l-154 -4l-4 561l783 6l-43 -565l-183 -4l-481 -383l6 -189l187 4l-6 -186l-885 -8l-17 194l248 -2v160l-502 410l-157 4zM406 1718l567 -14v-277l-547 -18zM1104 1710l551 4l-17 -276l-526 10z" />
<glyph unicode="&#x2c6;" d="M301 1223l283 354l278 6l236 -360l-273 -6l-145 129l-164 -123h-215z" />
<glyph unicode="&#x2dc;" d="M180 1253q6 12 17 32.5t48 72.5t76 92.5t97.5 74.5t116.5 36q51 2 98 -14.5t76.5 -34t61.5 -26t67.5 12.5t79.5 78l307 -53q-10 -14 -28.5 -37t-72 -80.5t-104 -99.5t-115.5 -72t-117 -21t-104.5 36.5t-85.5 48t-71.5 30t-82.5 -15.5t-100 -90z" />
<glyph unicode="&#x2000;" horiz-adv-x="922" />
<glyph unicode="&#x2001;" horiz-adv-x="1845" />
<glyph unicode="&#x2002;" horiz-adv-x="922" />
<glyph unicode="&#x2003;" horiz-adv-x="1845" />
<glyph unicode="&#x2004;" horiz-adv-x="615" />
<glyph unicode="&#x2005;" horiz-adv-x="461" />
<glyph unicode="&#x2006;" horiz-adv-x="307" />
<glyph unicode="&#x2007;" horiz-adv-x="307" />
<glyph unicode="&#x2008;" horiz-adv-x="230" />
<glyph unicode="&#x2009;" horiz-adv-x="369" />
<glyph unicode="&#x200a;" horiz-adv-x="102" />
<glyph unicode="&#x2010;" horiz-adv-x="735" d="M61 707l613 18l-10 -328h-596z" />
<glyph unicode="&#x2011;" horiz-adv-x="735" d="M61 707l613 18l-10 -328h-596z" />
<glyph unicode="&#x2012;" horiz-adv-x="735" d="M61 707l613 18l-10 -328h-596z" />
<glyph unicode="&#x2013;" horiz-adv-x="983" d="M41 717l901 18l-10 -274h-885z" />
<glyph unicode="&#x2014;" horiz-adv-x="1325" d="M41 729l1243 12l-10 -280l-1227 6z" />
<glyph unicode="&#x2018;" horiz-adv-x="528" d="M41 698l39 627l217 12l27 -270l163 2l-2 -352z" />
<glyph unicode="&#x2019;" horiz-adv-x="528" d="M41 948l2 352l444 19l-38 -627l-218 -12l-26 270z" />
<glyph unicode="&#x201a;" horiz-adv-x="483" d="M41 362l401 -6l-24 -596l-228 4l13 224l-152 10z" />
<glyph unicode="&#x201c;" horiz-adv-x="983" d="M41 672l31 622l213 -8l-17 -252h174l-18 -360zM541 678l24 596l228 -4l-13 -223l152 -11l10 -364z" />
<glyph unicode="&#x201d;" horiz-adv-x="983" d="M41 1292l401 -6l-24 -596l-228 4l13 224l-152 10zM541 930l18 360l383 2l-31 -622l-213 8l17 252h-174z" />
<glyph unicode="&#x201e;" horiz-adv-x="983" d="M41 362l401 -6l-24 -596l-228 4l13 224l-152 10zM541 0l18 360l383 2l-31 -622l-213 8l17 252h-174z" />
<glyph unicode="&#x2022;" horiz-adv-x="1128" d="M41 891l371 12l143 332l150 -328l382 -24l-268 -271l33 -340l-301 179l-324 -172l52 352z" />
<glyph unicode="&#x2026;" horiz-adv-x="1665" d="M41 -16l4 376l479 -6q0 -362 -6 -362zM672 -14l4 352l397 -6q2 -21 5 -56t9 -109.5t9 -123.5t2 -49zM1237 301l365 16q2 -20 4.5 -53t8 -102.5t8 -115.5t1.5 -46h-344z" />
<glyph unicode="&#x202f;" horiz-adv-x="369" />
<glyph unicode="&#x2039;" horiz-adv-x="489" d="M41 649l121 383l305 -22l-166 -346l188 -406l-280 6z" />
<glyph unicode="&#x203a;" horiz-adv-x="526" d="M0 248l246 393l-185 385l295 6l129 -391l-190 -405z" />
<glyph unicode="&#x205f;" horiz-adv-x="461" />
<glyph unicode="&#x20ac;" horiz-adv-x="1411" d="M119 408l1085 -7l-12 -145l-1069 14zM119 459v164l1122 10l-22 -182zM180 614q0 142 50.5 257.5t125 185.5t166.5 118t169.5 66.5t139.5 18.5q315 0 500 -7l-74 -501h-301q-71 -1 -130 -29.5t-96 -72.5t-57 -94.5t-20 -98.5q0 -43 7 -80.5t28 -78t54.5 -69t90.5 -47 t132 -18.5q52 0 217 10l-15 -184q-4 -1 -19 -4.5t-20 -5t-20.5 -4.5t-25.5 -4.5t-27.5 -4t-35 -3.5t-40 -2.5t-49 -2t-56.5 -0.5q-68 0 -134 9.5t-135.5 32t-131 56.5t-116 87t-93.5 119t-61.5 156t-22.5 195z" />
<glyph unicode="&#x2122;" horiz-adv-x="2131" d="M41 1319h846l-19 -434l-178 -23l12 176h-110l4 -348h119l-2 -106h-502l-8 114l121 -4l12 338l-111 -4l11 -176l-189 4zM934 1313h450l142 -414l166 414l397 2l-23 -309l-75 4l4 -320h92q4 -4 3.5 -29t-2.5 -54l-3 -29l-451 6l2 100l97 4l12 338l-211 -461l-131 -6 l-197 471l4 -342l82 -2l8 -104l-335 6l-2 110l79 -4l-2 322l-96 -2z" />
<glyph unicode="&#xe000;" horiz-adv-x="1116" d="M0 0v1116h1116v-1116h-1116z" />
<glyph unicode="&#xfb01;" horiz-adv-x="1644" d="M31 1051l155 -11q-26 227 66 352.5t268 125.5q63 0 124 -7t95 -14t84.5 -19.5t65.5 -15.5l-43 -284q-33 3 -66.5 4.5t-63 -8t-51.5 -26t-32.5 -49.5t-5.5 -79l864 29l-18 -861l151 -6l-12 -182l-694 6l-7 176h152l-19 434l-411 -16l16 -418l162 4v-192l-750 2l-8 184 l164 8l-2 398l-170 -6zM1014 1470l493 -10l-14 -233l-463 -17z" />
<glyph unicode="&#xfb02;" horiz-adv-x="1746" d="M31 1051l155 -11q-26 227 66 352.5t268 125.5q63 0 124 -7t95 -14t84.5 -19.5t65.5 -15.5l-43 -284q-33 3 -66.5 4.5t-63 -8t-51.5 -26t-32.5 -49.5t-5.5 -79l227 -19l-33 -403l-182 -16l10 -400l162 4v-192l-750 2l-8 184l164 8v375l-170 -6zM950 1468h606l-12 -1288 l162 2l-25 -184h-718l-5 184l185 -2l2 735l-189 -12z" />
</font>
</defs>
</svg>
